  0
SECTION
  2
HEADER
  9
$ACADVER
  1
AC1009
  9
$INSUNITS
 70
     1
  0
ENDSEC
  0
SECTION
  2
TABLES
  0
TABLE
  2
LAYER
 70
     8
  0
LAYER
  2
0
 62
     7
 70
0
  6
CONTINUOUS
  0
LAYER
  2
1
 62
     1
 70
0
  6
CONTINUOUS
  0
LAYER
  2
2
 62
     2
 70
0
  6
CONTINUOUS
  0
LAYER
  2
3
 62
     3
 70
0
  6
CONTINUOUS
  0
LAYER
  2
4
 62
     4
 70
0
  6
CONTINUOUS
  0
LAYER
  2
5
 62
     5
 70
0
  6
CONTINUOUS
  0
LAYER
  2
6
 62
     6
 70
0
  6
CONTINUOUS
  0
LAYER
  2
7
 62
     7
 70
0
  6
CONTINUOUS
  0
ENDTAB
  0
TABLE
  2
STYLE
 70
     1
  0
STYLE
 70
     0
  2
STANDARD
  3
TXT
 40
0.00
 41
1.00
 42
1.00
 50
0.00
 71
     0
  0
ENDTAB
  0
ENDSEC
  0
SECTION
  2
BLOCKS
  0
BLOCK
  8
0
  2
EPAD
 70
0
 10
0.0
 20
0.0
  0
POLYLINE
  8
0
 66
1
 70
1
 40
0.5
 41
0.5
  0
VERTEX
  8
0
 10
-0.25
 20
0.0
 42
1.0
  0
VERTEX
  8
0
 10
0.25
 20
0.0
 42
1.0
  0
SEQEND
  8
0
  0
ENDBLK
  8
0
  0
BLOCK
  8
0
  2
RPAD
 70
0
 10
0.0
 20
0.0
  0
TRACE
  8
0
 10
-0.5
 20
-0.5
 11
-0.5
 21
0.5
 12
0.5
 22
-0.5
 13
0.5
 23
0.5
  0
ENDBLK
  8
0
  0
ENDSEC
0
SECTION
2
ENTITIES
0
POLYLINE
8
0
66
1
40
0.025000
41
0.025000
0
VERTEX
8
0
10
1.062323
20
0.011496
0
VERTEX
8
0
10
1.142331
20
-0.068512
0
VERTEX
8
0
10
1.344646
20
-0.068512
0
SEQEND
8
0
0
POLYLINE
8
0
66
1
40
0.025000
41
0.025000
0
VERTEX
8
0
10
1.080276
20
-0.446693
0
VERTEX
8
0
10
1.254646
20
-0.446693
0
VERTEX
8
0
10
1.254646
20
-0.340512
0
SEQEND
8
0
0
POLYLINE
8
0
66
1
40
0.025000
41
0.025000
0
VERTEX
8
0
10
1.080276
20
-0.446693
0
VERTEX
8
0
10
1.080276
20
-0.318504
0
VERTEX
8
0
10
1.073268
20
-0.311496
0
VERTEX
8
0
10
1.073268
20
-0.176102
0
SEQEND
8
0
0
POLYLINE
8
0
66
1
40
0.025000
41
0.025000
0
VERTEX
8
0
10
-1.512362
20
0.040551
0
VERTEX
8
0
10
-1.457677
20
0.040551
0
VERTEX
8
0
10
-1.443307
20
0.054921
0
VERTEX
8
0
10
-1.373465
20
0.054921
0
SEQEND
8
0
0
POLYLINE
8
0
66
1
40
0.025000
41
0.025000
0
VERTEX
8
0
10
-1.373465
20
0.104921
0
VERTEX
8
0
10
-1.276142
20
0.104921
0
VERTEX
8
0
10
-1.276142
20
-0.116929
0
SEQEND
8
0
0
POLYLINE
8
0
66
1
40
0.025000
41
0.025000
0
VERTEX
8
0
10
-1.373465
20
0.104921
0
VERTEX
8
0
10
-1.457677
20
0.104921
0
VERTEX
8
0
10
-1.457677
20
0.158661
0
VERTEX
8
0
10
-1.512362
20
0.158661
0
SEQEND
8
0
0
POLYLINE
8
0
66
1
40
0.025000
41
0.025000
0
VERTEX
8
0
10
-1.373465
20
0.154921
0
VERTEX
8
0
10
-1.257677
20
0.154921
0
VERTEX
8
0
10
-1.107677
20
0.004921
0
VERTEX
8
0
10
-1.013465
20
0.004921
0
SEQEND
8
0
0
POLYLINE
8
0
66
1
40
0.025000
41
0.025000
0
VERTEX
8
0
10
-1.373465
20
0.154921
0
VERTEX
8
0
10
-1.373465
20
0.231496
0
VERTEX
8
0
10
-1.626535
20
0.231496
0
VERTEX
8
0
10
-1.626535
20
0.158661
0
SEQEND
8
0
0
POLYLINE
8
0
66
1
40
0.025000
41
0.025000
0
VERTEX
8
0
10
-1.608425
20
-0.116929
0
VERTEX
8
0
10
-1.608425
20
-0.043504
0
VERTEX
8
0
10
-1.626535
20
-0.025394
0
VERTEX
8
0
10
-1.626535
20
0.040551
0
SEQEND
8
0
0
POLYLINE
8
0
66
1
40
0.025000
41
0.025000
0
VERTEX
8
0
10
-1.608425
20
-0.116929
0
VERTEX
8
0
10
-1.608425
20
-0.193504
0
VERTEX
8
0
10
-1.626535
20
-0.211614
0
VERTEX
8
0
10
-1.626535
20
-0.274409
0
SEQEND
8
0
0
POLYLINE
8
0
66
1
40
0.025000
41
0.025000
0
VERTEX
8
0
10
-1.082677
20
0.104921
0
VERTEX
8
0
10
-1.082677
20
0.054921
0
VERTEX
8
0
10
-1.013465
20
0.054921
0
SEQEND
8
0
0
POLYLINE
8
0
66
1
40
0.025000
41
0.025000
0
VERTEX
8
0
10
-1.082677
20
0.104921
0
VERTEX
8
0
10
-1.013465
20
0.104921
0
SEQEND
8
0
0
POLYLINE
8
0
66
1
40
0.025000
41
0.025000
0
VERTEX
8
0
10
-1.402677
20
0.761496
0
VERTEX
8
0
10
-1.482677
20
0.761496
0
VERTEX
8
0
10
-1.487677
20
0.756496
0
VERTEX
8
0
10
-1.548504
20
0.756496
0
SEQEND
8
0
0
POLYLINE
8
0
66
1
40
0.025000
41
0.025000
0
VERTEX
8
0
10
-1.402677
20
0.811496
0
VERTEX
8
0
10
-1.332677
20
0.811496
0
VERTEX
8
0
10
-1.282677
20
0.761496
0
VERTEX
8
0
10
-1.282677
20
0.591496
0
SEQEND
8
0
0
POLYLINE
8
0
66
1
40
0.025000
41
0.025000
0
VERTEX
8
0
10
-1.402677
20
0.811496
0
VERTEX
8
0
10
-1.482677
20
0.811496
0
VERTEX
8
0
10
-1.482677
20
0.861496
0
VERTEX
8
0
10
-1.548504
20
0.861496
0
SEQEND
8
0
0
POLYLINE
8
0
66
1
40
0.025000
41
0.025000
0
VERTEX
8
0
10
-1.307677
20
0.881496
0
VERTEX
8
0
10
-1.137677
20
0.711496
0
VERTEX
8
0
10
-1.042677
20
0.711496
0
SEQEND
8
0
0
POLYLINE
8
0
66
1
40
0.025000
41
0.025000
0
VERTEX
8
0
10
-1.332677
20
0.861496
0
VERTEX
8
0
10
-1.332677
20
0.881496
0
VERTEX
8
0
10
-1.307677
20
0.881496
0
VERTEX
8
0
10
-1.407677
20
0.981496
0
VERTEX
8
0
10
-1.607677
20
0.981496
0
VERTEX
8
0
10
-1.662677
20
0.926496
0
VERTEX
8
0
10
-1.662677
20
0.861496
0
SEQEND
8
0
0
POLYLINE
8
0
66
1
40
0.025000
41
0.025000
0
VERTEX
8
0
10
-1.332677
20
0.861496
0
VERTEX
8
0
10
-1.332677
20
0.861496
0
VERTEX
8
0
10
-1.402677
20
0.861496
0
VERTEX
8
0
10
-1.402677
20
0.861496
0
SEQEND
8
0
0
POLYLINE
8
0
66
1
40
0.025000
41
0.025000
0
VERTEX
8
0
10
-1.627677
20
0.596496
0
VERTEX
8
0
10
-1.627677
20
0.656496
0
VERTEX
8
0
10
-1.662677
20
0.691496
0
VERTEX
8
0
10
-1.662677
20
0.756496
0
SEQEND
8
0
0
POLYLINE
8
0
66
1
40
0.025000
41
0.025000
0
VERTEX
8
0
10
-1.627677
20
0.596496
0
VERTEX
8
0
10
-1.627677
20
0.446496
0
SEQEND
8
0
0
POLYLINE
8
0
66
1
40
0.025000
41
0.025000
0
VERTEX
8
0
10
-1.107677
20
0.811496
0
VERTEX
8
0
10
-1.107677
20
0.761496
0
VERTEX
8
0
10
-1.042677
20
0.761496
0
SEQEND
8
0
0
POLYLINE
8
0
66
1
40
0.025000
41
0.025000
0
VERTEX
8
0
10
-1.107677
20
0.811496
0
VERTEX
8
0
10
-1.107677
20
0.811496
0
VERTEX
8
0
10
-1.042677
20
0.811496
0
SEQEND
8
0
0
POLYLINE
8
0
66
1
40
0.015000
41
0.015000
0
VERTEX
8
0
10
0.102323
20
-0.003504
0
VERTEX
8
0
10
0.075307
20
0.023512
0
VERTEX
8
0
10
0.075307
20
0.056496
0
VERTEX
8
0
10
0.071811
20
0.059992
0
VERTEX
8
0
10
0.071811
20
0.220394
0
SEQEND
8
0
0
POLYLINE
8
0
66
1
40
0.015000
41
0.015000
0
VERTEX
8
0
10
0.202323
20
-0.003504
0
VERTEX
8
0
10
0.202323
20
0.056496
0
VERTEX
8
0
10
0.103307
20
0.155512
0
VERTEX
8
0
10
0.103307
20
0.220394
0
SEQEND
8
0
0
POLYLINE
8
0
66
1
40
0.015000
41
0.015000
0
VERTEX
8
0
10
0.302323
20
-0.003504
0
VERTEX
8
0
10
0.302323
20
0.056496
0
VERTEX
8
0
10
0.267323
20
0.056496
0
VERTEX
8
0
10
0.192323
20
0.131496
0
VERTEX
8
0
10
0.192323
20
0.275512
0
VERTEX
8
0
10
0.158425
20
0.275512
0
SEQEND
8
0
0
POLYLINE
8
0
66
1
40
0.015000
41
0.015000
0
VERTEX
8
0
10
-0.357677
20
-0.493504
0
VERTEX
8
0
10
-0.357677
20
-0.318504
0
VERTEX
8
0
10
-0.117165
20
-0.077992
0
VERTEX
8
0
10
-0.117165
20
0.220394
0
SEQEND
8
0
0
POLYLINE
8
0
66
1
40
0.015000
41
0.015000
0
VERTEX
8
0
10
-0.257677
20
-0.493504
0
VERTEX
8
0
10
-0.257677
20
-0.368504
0
VERTEX
8
0
10
-0.085669
20
-0.196496
0
VERTEX
8
0
10
-0.085669
20
0.220394
0
SEQEND
8
0
0
POLYLINE
8
0
66
1
40
0.015000
41
0.015000
0
VERTEX
8
0
10
-0.157677
20
-0.493504
0
VERTEX
8
0
10
-0.157677
20
-0.418504
0
VERTEX
8
0
10
-0.054173
20
-0.315000
0
VERTEX
8
0
10
-0.054173
20
0.220394
0
SEQEND
8
0
0
POLYLINE
8
0
66
1
40
0.015000
41
0.015000
0
VERTEX
8
0
10
0.067323
20
0.921496
0
VERTEX
8
0
10
0.167323
20
0.921496
0
VERTEX
8
0
10
0.167323
20
0.831496
0
VERTEX
8
0
10
0.071811
20
0.735984
0
VERTEX
8
0
10
0.071811
20
0.551102
0
SEQEND
8
0
0
POLYLINE
8
0
66
1
40
0.025000
41
0.025000
0
VERTEX
8
0
10
0.067323
20
0.921496
0
VERTEX
8
0
10
0.067323
20
0.981496
0
VERTEX
8
0
10
0.077323
20
0.991496
0
VERTEX
8
0
10
0.077323
20
1.046496
0
SEQEND
8
0
0
POLYLINE
8
0
66
1
40
0.015000
41
0.015000
0
VERTEX
8
0
10
-0.162677
20
0.921496
0
VERTEX
8
0
10
-0.072677
20
0.831496
0
VERTEX
8
0
10
0.040315
20
0.831496
0
VERTEX
8
0
10
0.040315
20
0.551102
0
SEQEND
8
0
0
POLYLINE
8
0
66
1
40
0.025000
41
0.025000
0
VERTEX
8
0
10
-0.162677
20
0.921496
0
VERTEX
8
0
10
-0.152677
20
0.931496
0
VERTEX
8
0
10
-0.152677
20
1.041496
0
SEQEND
8
0
0
POLYLINE
8
0
66
1
40
0.025000
41
0.025000
0
VERTEX
8
0
10
-0.397677
20
0.921496
0
VERTEX
8
0
10
-0.397677
20
1.046496
0
SEQEND
8
0
0
POLYLINE
8
0
66
1
40
0.025000
41
0.025000
0
VERTEX
8
0
10
-0.582677
20
0.311496
0
VERTEX
8
0
10
-0.677677
20
0.311496
0
SEQEND
8
0
0
POLYLINE
8
0
66
1
40
0.025000
41
0.025000
0
VERTEX
8
0
10
-0.582677
20
0.011496
0
VERTEX
8
0
10
-0.492677
20
0.011496
0
SEQEND
8
0
0
POLYLINE
8
0
66
1
40
0.025000
41
0.025000
0
VERTEX
8
0
10
1.080276
20
-0.746693
0
VERTEX
8
0
10
1.087126
20
-0.753543
0
VERTEX
8
0
10
1.209213
20
-0.753543
0
SEQEND
8
0
0
POLYLINE
8
0
66
1
40
0.025000
41
0.025000
0
VERTEX
8
0
10
1.087323
20
0.981496
0
VERTEX
8
0
10
1.095323
20
0.973496
0
VERTEX
8
0
10
1.397323
20
0.973496
0
SEQEND
8
0
0
POLYLINE
8
0
66
1
40
0.025000
41
0.025000
0
VERTEX
8
0
10
1.097323
20
0.796496
0
VERTEX
8
0
10
1.052323
20
0.796496
0
VERTEX
8
0
10
1.052323
20
0.601496
0
SEQEND
8
0
0
POLYLINE
8
0
66
1
40
0.025000
41
0.025000
0
VERTEX
8
0
10
1.097323
20
0.796496
0
VERTEX
8
0
10
1.097323
20
0.701496
0
VERTEX
8
0
10
1.307323
20
0.701496
0
SEQEND
8
0
0
POLYLINE
8
0
66
1
40
0.025000
41
0.025000
0
VERTEX
8
0
10
1.052323
20
0.301496
0
VERTEX
8
0
10
1.052323
20
0.231496
0
VERTEX
8
0
10
1.177323
20
0.231496
0
VERTEX
8
0
10
1.177323
20
0.301496
0
SEQEND
8
0
0
POLYLINE
8
0
66
1
40
0.025000
41
0.025000
0
VERTEX
8
0
10
0.142323
20
-0.493504
0
VERTEX
8
0
10
0.142323
20
-0.633504
0
SEQEND
8
0
0
POLYLINE
8
0
66
1
40
0.025000
41
0.025000
0
VERTEX
8
0
10
0.017323
20
-1.118504
0
VERTEX
8
0
10
0.017323
20
-0.818504
0
VERTEX
8
0
10
0.088150
20
-0.747677
0
VERTEX
8
0
10
0.142323
20
-0.747677
0
SEQEND
8
0
0
POLYLINE
8
0
66
1
40
0.025000
41
0.025000
0
VERTEX
8
0
10
-0.249724
20
-1.160591
0
VERTEX
8
0
10
-0.326890
20
-1.237756
0
VERTEX
8
0
10
-0.484370
20
-1.237756
0
SEQEND
8
0
0
POLYLINE
8
0
66
1
40
0.025000
41
0.025000
0
VERTEX
8
0
10
0.084921
20
-1.208228
0
VERTEX
8
0
10
0.217323
20
-1.208228
0
VERTEX
8
0
10
0.246850
20
-1.237756
0
VERTEX
8
0
10
0.496732
20
-1.237756
0
SEQEND
8
0
0
POLYLINE
8
0
66
1
40
0.025000
41
0.025000
0
VERTEX
8
0
10
-0.249724
20
-1.160591
0
VERTEX
8
0
10
-0.024764
20
-1.160591
0
VERTEX
8
0
10
0.017323
20
-1.118504
0
SEQEND
8
0
0
POLYLINE
8
0
66
1
40
0.025000
41
0.025000
0
VERTEX
8
0
10
-0.684370
20
-1.237756
0
VERTEX
8
0
10
-0.840276
20
-1.237756
0
VERTEX
8
0
10
-0.919016
20
-1.159016
0
SEQEND
8
0
0
POLYLINE
8
0
66
1
40
0.050000
41
0.050000
0
VERTEX
8
0
10
-0.919016
20
-1.159016
0
VERTEX
8
0
10
-1.165079
20
-1.159016
0
VERTEX
8
0
10
-1.214291
20
-1.208228
0
VERTEX
8
0
10
-1.332677
20
-1.208228
0
VERTEX
8
0
10
-1.340945
20
-1.199961
0
VERTEX
8
0
10
-1.529252
20
-1.199961
0
SEQEND
8
0
0
POLYLINE
8
0
66
1
40
0.025000
41
0.025000
0
VERTEX
8
0
10
0.962323
20
0.011496
0
VERTEX
8
0
10
0.959094
20
0.008268
0
VERTEX
8
0
10
0.959094
20
-0.176102
0
SEQEND
8
0
0
POLYLINE
8
0
66
1
40
0.025000
41
0.025000
0
VERTEX
8
0
10
-0.038504
20
1.106496
0
VERTEX
8
0
10
0.191496
20
1.106496
0
VERTEX
8
0
10
0.191496
20
1.046496
0
SEQEND
8
0
0
POLYLINE
8
0
66
1
40
0.025000
41
0.025000
0
VERTEX
8
0
10
-0.283504
20
1.156496
0
VERTEX
8
0
10
-0.088504
20
1.156496
0
VERTEX
8
0
10
-0.038504
20
1.106496
0
VERTEX
8
0
10
-0.038504
20
1.041496
0
SEQEND
8
0
0
POLYLINE
8
0
66
1
40
0.025000
41
0.025000
0
VERTEX
8
0
10
-0.283504
20
1.156496
0
VERTEX
8
0
10
-0.283504
20
1.046496
0
SEQEND
8
0
0
POLYLINE
8
0
66
1
40
0.025000
41
0.025000
0
VERTEX
8
0
10
0.931378
20
-1.180276
0
VERTEX
8
0
10
1.067323
20
-1.180276
0
VERTEX
8
0
10
1.095276
20
-1.208228
0
VERTEX
8
0
10
1.246339
20
-1.208228
0
SEQEND
8
0
0
POLYLINE
8
0
66
1
40
0.025000
41
0.025000
0
VERTEX
8
0
10
0.931378
20
-1.180276
0
VERTEX
8
0
10
0.780551
20
-1.180276
0
VERTEX
8
0
10
0.767323
20
-1.193504
0
VERTEX
8
0
10
0.767323
20
-1.237756
0
VERTEX
8
0
10
0.696732
20
-1.237756
0
SEQEND
8
0
0
POLYLINE
8
0
66
1
40
0.025000
41
0.025000
0
VERTEX
8
0
10
0.362323
20
1.261496
0
VERTEX
8
0
10
0.362323
20
1.331496
0
VERTEX
8
0
10
0.312323
20
1.381496
0
VERTEX
8
0
10
0.042323
20
1.381496
0
VERTEX
8
0
10
-0.007677
20
1.331496
0
VERTEX
8
0
10
-0.007677
20
1.266496
0
SEQEND
8
0
0
POLYLINE
8
0
66
1
40
0.025000
41
0.025000
0
VERTEX
8
0
10
0.527323
20
0.294996
0
VERTEX
8
0
10
0.527323
20
0.333496
0
SEQEND
8
0
0
POLYLINE
8
0
66
1
40
0.025000
41
0.025000
0
VERTEX
8
0
10
0.527323
20
0.571496
0
VERTEX
8
0
10
0.527323
20
0.656496
0
VERTEX
8
0
10
0.508425
20
0.675394
0
VERTEX
8
0
10
0.508425
20
0.826496
0
SEQEND
8
0
0
POLYLINE
8
0
66
1
40
0.025000
41
0.025000
0
VERTEX
8
0
10
0.527323
20
0.451496
0
VERTEX
8
0
10
0.527323
20
0.571496
0
SEQEND
8
0
0
POLYLINE
8
0
66
1
40
0.050000
41
0.050000
0
VERTEX
8
0
10
-0.584370
20
-1.237756
0
VERTEX
8
0
10
-0.584370
20
-1.318504
0
VERTEX
8
0
10
0.596732
20
-1.318504
0
SEQEND
8
0
0
POLYLINE
8
0
66
1
40
0.025000
41
0.025000
0
VERTEX
8
0
10
0.792323
20
0.356496
0
VERTEX
8
0
10
0.756323
20
0.392496
0
VERTEX
8
0
10
0.742323
20
0.392496
0
SEQEND
8
0
0
POLYLINE
8
0
66
1
40
0.025000
41
0.025000
0
VERTEX
8
0
10
0.692323
20
0.571496
0
VERTEX
8
0
10
0.742323
20
0.521496
0
VERTEX
8
0
10
0.742323
20
0.392496
0
SEQEND
8
0
0
POLYLINE
8
0
66
1
40
0.025000
41
0.025000
0
VERTEX
8
0
10
-0.657677
20
0.631496
0
VERTEX
8
0
10
-0.782677
20
0.506496
0
VERTEX
8
0
10
-0.932677
20
0.506496
0
SEQEND
8
0
0
POLYLINE
8
0
66
1
40
0.025000
41
0.025000
0
VERTEX
8
0
10
-0.957677
20
0.506496
0
VERTEX
8
0
10
-0.932677
20
0.506496
0
SEQEND
8
0
0
POLYLINE
8
0
66
1
40
0.025000
41
0.025000
0
VERTEX
8
0
10
-0.497677
20
0.921496
0
VERTEX
8
0
10
-0.632677
20
0.786496
0
VERTEX
8
0
10
-0.632677
20
0.656496
0
VERTEX
8
0
10
-0.657677
20
0.631496
0
SEQEND
8
0
0
POLYLINE
8
0
66
1
40
0.025000
41
0.025000
0
VERTEX
8
0
10
-0.262677
20
0.921496
0
VERTEX
8
0
10
-0.242504
20
0.941669
0
VERTEX
8
0
10
-0.242504
20
1.056496
0
VERTEX
8
0
10
-0.192504
20
1.106496
0
VERTEX
8
0
10
-0.125927
20
1.106496
0
VERTEX
8
0
10
-0.100927
20
1.081496
0
SEQEND
8
0
0
POLYLINE
8
0
66
1
40
0.025000
41
0.025000
0
VERTEX
8
0
10
0.792323
20
0.356496
0
VERTEX
8
0
10
0.792323
20
0.281496
0
VERTEX
8
0
10
0.737323
20
0.226496
0
VERTEX
8
0
10
0.592323
20
0.226496
0
SEQEND
8
0
0
POLYLINE
8
0
66
1
40
0.025000
41
0.025000
0
VERTEX
8
0
10
-0.082677
20
1.206496
0
VERTEX
8
0
10
0.192323
20
1.206496
0
VERTEX
8
0
10
0.192323
20
1.266496
0
SEQEND
8
0
0
POLYLINE
8
0
66
1
40
0.025000
41
0.025000
0
VERTEX
8
0
10
-0.100927
20
1.081496
0
VERTEX
8
0
10
-0.100927
20
0.989746
0
VERTEX
8
0
10
-0.032677
20
0.921496
0
SEQEND
8
0
0
POLYLINE
8
0
66
1
40
0.025000
41
0.025000
0
VERTEX
8
0
10
-0.097677
20
1.106496
0
VERTEX
8
0
10
-0.100927
20
1.106496
0
VERTEX
8
0
10
-0.100927
20
1.081496
0
SEQEND
8
0
0
POLYLINE
8
0
66
1
40
0.025000
41
0.025000
0
VERTEX
8
0
10
0.596732
20
-1.237756
0
VERTEX
8
0
10
0.596732
20
-1.318504
0
SEQEND
8
0
0
POLYLINE
8
0
66
1
40
0.025000
41
0.025000
0
VERTEX
8
0
10
0.742323
20
0.392496
0
VERTEX
8
0
10
0.692323
20
0.392496
0
SEQEND
8
0
0
POLYLINE
8
0
66
1
40
0.025000
41
0.025000
0
VERTEX
8
0
10
1.467323
20
0.431496
0
VERTEX
8
0
10
1.442323
20
0.406496
0
VERTEX
8
0
10
0.977323
20
0.406496
0
SEQEND
8
0
0
POLYLINE
8
0
66
1
40
0.025000
41
0.025000
0
VERTEX
8
0
10
0.952323
20
0.356496
0
VERTEX
8
0
10
0.952323
20
0.381496
0
VERTEX
8
0
10
0.977323
20
0.406496
0
SEQEND
8
0
0
POLYLINE
8
0
66
1
40
0.020000
41
0.020000
0
VERTEX
8
0
10
-0.082677
20
0.401496
0
VERTEX
8
0
10
0.158425
20
0.401496
0
SEQEND
8
0
0
POLYLINE
8
0
66
1
40
0.025000
41
0.025000
0
VERTEX
8
0
10
0.977323
20
0.406496
0
VERTEX
8
0
10
0.952323
20
0.431496
0
VERTEX
8
0
10
0.952323
20
0.601496
0
SEQEND
8
0
0
POLYLINE
8
0
66
1
40
0.025000
41
0.025000
0
VERTEX
8
0
10
0.952323
20
0.356496
0
VERTEX
8
0
10
0.952323
20
0.301496
0
SEQEND
8
0
0
POLYLINE
8
0
66
1
40
0.025000
41
0.025000
0
VERTEX
8
0
10
-1.527677
20
0.446496
0
VERTEX
8
0
10
-1.467677
20
0.506496
0
VERTEX
8
0
10
-0.957677
20
0.506496
0
SEQEND
8
0
0
POLYLINE
8
0
66
1
40
0.020000
41
0.020000
0
VERTEX
8
0
10
-0.172283
20
0.432992
0
VERTEX
8
0
10
-0.582677
20
0.432992
0
VERTEX
8
0
10
-0.632677
20
0.482992
0
VERTEX
8
0
10
-0.632677
20
0.606496
0
VERTEX
8
0
10
-0.657677
20
0.631496
0
SEQEND
8
0
0
POLYLINE
8
0
66
1
40
0.025000
41
0.025000
0
VERTEX
8
0
10
-0.497677
20
0.921496
0
VERTEX
8
0
10
-0.497677
20
1.056496
0
VERTEX
8
0
10
-0.447677
20
1.106496
0
VERTEX
8
0
10
-0.332677
20
1.106496
0
VERTEX
8
0
10
-0.332677
20
0.981496
0
SEQEND
8
0
0
POLYLINE
8
0
66
1
40
0.025000
41
0.025000
0
VERTEX
8
0
10
0.562323
20
1.261496
0
VERTEX
8
0
10
0.632323
20
1.331496
0
VERTEX
8
0
10
0.917323
20
1.331496
0
VERTEX
8
0
10
0.917323
20
1.261496
0
SEQEND
8
0
0
POLYLINE
8
0
66
1
40
0.025000
41
0.025000
0
VERTEX
8
0
10
0.627323
20
0.571496
0
VERTEX
8
0
10
0.627323
20
0.631496
0
VERTEX
8
0
10
0.646220
20
0.650394
0
VERTEX
8
0
10
0.646220
20
0.826496
0
SEQEND
8
0
0
POLYLINE
8
0
66
1
40
0.025000
41
0.025000
0
VERTEX
8
0
10
0.956378
20
-0.968504
0
VERTEX
8
0
10
1.144409
20
-0.968504
0
VERTEX
8
0
10
1.246339
20
-1.070433
0
SEQEND
8
0
0
POLYLINE
8
0
66
1
40
0.025000
41
0.025000
0
VERTEX
8
0
10
0.980276
20
-0.746693
0
VERTEX
8
0
10
0.931378
20
-0.795591
0
VERTEX
8
0
10
0.931378
20
-0.943504
0
VERTEX
8
0
10
0.956378
20
-0.968504
0
SEQEND
8
0
0
POLYLINE
8
0
66
1
40
0.020000
41
0.020000
0
VERTEX
8
0
10
-0.082677
20
0.401496
0
VERTEX
8
0
10
-0.114173
20
0.370000
0
VERTEX
8
0
10
-0.172283
20
0.370000
0
SEQEND
8
0
0
POLYLINE
8
0
66
1
40
0.025000
41
0.025000
0
VERTEX
8
0
10
0.931378
20
-1.080276
0
VERTEX
8
0
10
0.931378
20
-0.993504
0
VERTEX
8
0
10
0.956378
20
-0.968504
0
SEQEND
8
0
0
POLYLINE
8
0
66
1
40
0.025000
41
0.025000
0
VERTEX
8
0
10
-0.262677
20
0.921496
0
VERTEX
8
0
10
-0.332677
20
0.921496
0
VERTEX
8
0
10
-0.332677
20
0.981496
0
SEQEND
8
0
0
POLYLINE
8
0
66
1
40
0.025000
41
0.025000
0
VERTEX
8
0
10
0.692323
20
0.571496
0
VERTEX
8
0
10
0.692323
20
0.538496
0
VERTEX
8
0
10
0.660323
20
0.506496
0
SEQEND
8
0
0
POLYLINE
8
0
66
1
40
0.025000
41
0.025000
0
VERTEX
8
0
10
0.635323
20
0.392496
0
VERTEX
8
0
10
0.635323
20
0.481496
0
VERTEX
8
0
10
0.660323
20
0.506496
0
SEQEND
8
0
0
POLYLINE
8
0
66
1
40
0.050000
41
0.050000
0
VERTEX
8
0
10
-0.919016
20
-1.059016
0
VERTEX
8
0
10
-0.857677
20
-1.059016
0
SEQEND
8
0
0
POLYLINE
8
0
66
1
40
0.020000
41
0.020000
0
VERTEX
8
0
10
-0.172283
20
0.432992
0
VERTEX
8
0
10
-0.114173
20
0.432992
0
VERTEX
8
0
10
-0.082677
20
0.401496
0
SEQEND
8
0
0
POLYLINE
8
0
66
1
40
0.025000
41
0.025000
0
VERTEX
8
0
10
0.242323
20
-0.493504
0
VERTEX
8
0
10
0.495512
20
-0.746693
0
VERTEX
8
0
10
0.980276
20
-0.746693
0
SEQEND
8
0
0
POLYLINE
8
0
66
1
40
0.050000
41
0.050000
0
VERTEX
8
0
10
0.596732
20
-1.237756
0
VERTEX
8
0
10
0.596732
20
-1.143504
0
VERTEX
8
0
10
0.523661
20
-1.070433
0
VERTEX
8
0
10
0.084921
20
-1.070433
0
SEQEND
8
0
0
POLYLINE
8
0
66
1
40
0.025000
41
0.025000
0
VERTEX
8
0
10
0.980276
20
-0.446693
0
VERTEX
8
0
10
0.795512
20
-0.446693
0
VERTEX
8
0
10
0.592323
20
-0.243504
0
SEQEND
8
0
0
POLYLINE
8
0
66
1
40
0.025000
41
0.025000
0
VERTEX
8
0
10
0.980276
20
-0.446693
0
VERTEX
8
0
10
1.027087
20
-0.493504
0
VERTEX
8
0
10
1.367323
20
-0.493504
0
VERTEX
8
0
10
1.434646
20
-0.426181
0
VERTEX
8
0
10
1.434646
20
-0.340512
0
SEQEND
8
0
0
POLYLINE
8
0
66
1
40
0.025000
41
0.025000
0
VERTEX
8
0
10
-0.632677
20
-1.068504
0
VERTEX
8
0
10
-0.624764
20
-1.060591
0
VERTEX
8
0
10
-0.249724
20
-1.060591
0
SEQEND
8
0
0
POLYLINE
8
0
66
1
40
0.050000
41
0.050000
0
VERTEX
8
0
10
-0.632677
20
-1.068504
0
VERTEX
8
0
10
-0.657677
20
-1.093504
0
VERTEX
8
0
10
-0.823189
20
-1.093504
0
VERTEX
8
0
10
-0.857677
20
-1.059016
0
SEQEND
8
0
0
POLYLINE
8
0
66
1
40
0.050000
41
0.050000
0
VERTEX
8
0
10
-0.584370
20
-1.237756
0
VERTEX
8
0
10
-0.584370
20
-1.116811
0
VERTEX
8
0
10
-0.632677
20
-1.068504
0
SEQEND
8
0
0
POLYLINE
8
0
66
1
40
0.025000
41
0.025000
0
VERTEX
8
0
10
1.467323
20
0.431496
0
VERTEX
8
0
10
1.467323
20
0.531496
0
VERTEX
8
0
10
1.487323
20
0.551496
0
VERTEX
8
0
10
1.487323
20
0.701496
0
SEQEND
8
0
0
POLYLINE
8
0
66
1
40
0.025000
41
0.025000
0
VERTEX
8
0
10
-1.457677
20
-1.068504
0
VERTEX
8
0
10
-1.457677
20
-1.093504
0
SEQEND
8
0
0
POLYLINE
8
0
66
1
40
0.050000
41
0.050000
0
VERTEX
8
0
10
-1.214291
20
-1.070433
0
VERTEX
8
0
10
-1.382677
20
-1.070433
0
VERTEX
8
0
10
-1.405748
20
-1.093504
0
VERTEX
8
0
10
-1.457677
20
-1.093504
0
SEQEND
8
0
0
POLYLINE
8
0
66
1
40
0.025000
41
0.025000
0
VERTEX
8
0
10
-1.457677
20
-1.093504
0
VERTEX
8
0
10
-1.464134
20
-1.099961
0
VERTEX
8
0
10
-1.529252
20
-1.099961
0
SEQEND
8
0
0
POLYLINE
8
0
66
1
40
0.050000
41
0.050000
0
VERTEX
8
0
10
-0.919016
20
-1.059016
0
VERTEX
8
0
10
-1.032677
20
-1.059016
0
VERTEX
8
0
10
-1.044094
20
-1.070433
0
VERTEX
8
0
10
-1.214291
20
-1.070433
0
SEQEND
8
0
0
POLYLINE
8
0
66
1
40
0.025000
41
0.025000
0
VERTEX
8
0
10
-1.390315
20
-0.116929
0
VERTEX
8
0
10
-1.390315
20
-0.060866
0
VERTEX
8
0
10
-1.432677
20
-0.018504
0
VERTEX
8
0
10
-1.432677
20
0.004921
0
VERTEX
8
0
10
-1.373465
20
0.004921
0
SEQEND
8
0
0
POLYLINE
8
0
66
1
40
0.025000
41
0.025000
0
VERTEX
8
0
10
0.627323
20
0.571496
0
VERTEX
8
0
10
0.627323
20
0.506496
0
VERTEX
8
0
10
0.660323
20
0.506496
0
SEQEND
8
0
0
POLYLINE
8
0
66
1
40
0.025000
41
0.025000
0
VERTEX
8
0
10
-1.526535
20
-0.274409
0
VERTEX
8
0
10
-1.507441
20
-0.293504
0
VERTEX
8
0
10
-1.457677
20
-0.293504
0
SEQEND
8
0
0
POLYLINE
8
0
66
1
40
0.025000
41
0.025000
0
VERTEX
8
0
10
0.621220
20
0.001496
0
VERTEX
8
0
10
0.621220
20
-0.214606
0
VERTEX
8
0
10
0.592323
20
-0.243504
0
SEQEND
8
0
0
POLYLINE
8
0
66
1
40
0.025000
41
0.025000
0
VERTEX
8
0
10
0.621220
20
0.001496
0
VERTEX
8
0
10
0.621220
20
0.131496
0
VERTEX
8
0
10
0.617323
20
0.135394
0
VERTEX
8
0
10
0.617323
20
0.201496
0
SEQEND
8
0
0
POLYLINE
8
0
66
1
40
0.025000
41
0.025000
0
VERTEX
8
0
10
-1.396850
20
0.591496
0
VERTEX
8
0
10
-1.522677
20
0.591496
0
VERTEX
8
0
10
-1.527677
20
0.596496
0
SEQEND
8
0
0
POLYLINE
8
0
66
1
40
0.025000
41
0.025000
0
VERTEX
8
0
10
0.242323
20
-0.493504
0
VERTEX
8
0
10
0.242323
20
-0.418504
0
VERTEX
8
0
10
0.042323
20
-0.418504
0
VERTEX
8
0
10
0.042323
20
-0.493504
0
SEQEND
8
0
0
POLYLINE
8
0
66
1
40
0.025000
41
0.025000
0
VERTEX
8
0
10
-1.390315
20
-0.116929
0
VERTEX
8
0
10
-1.508425
20
-0.116929
0
SEQEND
8
0
0
POLYLINE
8
0
66
1
40
0.025000
41
0.025000
0
VERTEX
8
0
10
-1.396850
20
0.591496
0
VERTEX
8
0
10
-1.332677
20
0.591496
0
VERTEX
8
0
10
-1.332677
20
0.711496
0
VERTEX
8
0
10
-1.402677
20
0.711496
0
SEQEND
8
0
0
POLYLINE
8
0
66
1
40
0.025000
41
0.025000
0
VERTEX
8
0
10
0.568323
20
0.392496
0
VERTEX
8
0
10
0.568323
20
0.392496
0
SEQEND
8
0
0
POLYLINE
8
0
66
1
40
0.025000
41
0.025000
0
VERTEX
8
0
10
0.635323
20
0.392496
0
VERTEX
8
0
10
0.635323
20
0.384995
0
VERTEX
8
0
10
0.568323
20
0.384995
0
VERTEX
8
0
10
0.568323
20
0.392496
0
VERTEX
8
0
10
0.542323
20
0.392496
0
VERTEX
8
0
10
0.542323
20
0.392496
0
VERTEX
8
0
10
0.527323
20
0.392496
0
SEQEND
8
0
0
POLYLINE
8
0
66
1
40
0.025000
41
0.025000
0
VERTEX
8
0
10
-1.526535
20
-0.274409
0
VERTEX
8
0
10
-1.526535
20
-0.211614
0
VERTEX
8
0
10
-1.508425
20
-0.193504
0
SEQEND
8
0
0
POLYLINE
8
0
66
1
40
0.025000
41
0.025000
0
VERTEX
8
0
10
-1.527677
20
0.446496
0
VERTEX
8
0
10
-1.527677
20
0.531496
0
SEQEND
8
0
0
POLYLINE
8
0
66
1
40
0.025000
41
0.025000
0
VERTEX
8
0
10
-1.527677
20
0.596496
0
VERTEX
8
0
10
-1.527677
20
0.531496
0
SEQEND
8
0
0
POLYLINE
8
0
66
1
40
0.025000
41
0.025000
0
VERTEX
8
0
10
-1.508425
20
-0.116929
0
VERTEX
8
0
10
-1.508425
20
-0.193504
0
SEQEND
8
0
0
POLYLINE
8
0
66
1
40
0.025000
41
0.025000
0
VERTEX
8
0
10
0.987323
20
0.964567
0
VERTEX
8
0
10
0.987323
20
0.981496
0
SEQEND
8
0
0
POLYLINE
8
0
66
1
40
0.050000
41
0.050000
0
VERTEX
8
0
10
0.983150
20
0.796496
0
VERTEX
8
0
10
0.983150
20
0.856496
0
VERTEX
8
0
10
0.984252
20
0.856496
0
VERTEX
8
0
10
0.987323
20
0.881496
0
VERTEX
8
0
10
0.987323
20
0.964567
0
SEQEND
8
0
0
POLYLINE
8
0
66
1
40
0.025000
41
0.025000
0
VERTEX
8
0
10
0.084921
20
-1.208228
0
VERTEX
8
0
10
0.039370
20
-1.181102
0
VERTEX
8
0
10
0.017323
20
-1.118504
0
SEQEND
8
0
0
POLYLINE
8
0
66
1
40
0.025000
41
0.025000
0
VERTEX
8
0
10
-1.457677
20
-1.068504
0
VERTEX
8
0
10
-1.457677
20
-0.472441
0
VERTEX
8
0
10
-1.457677
20
-0.293504
0
SEQEND
8
0
0
POLYLINE
8
0
66
1
40
0.025000
41
0.025000
0
VERTEX
8
0
10
0.527323
20
0.294996
0
VERTEX
8
0
10
0.467323
20
0.294996
0
SEQEND
8
0
0
POLYLINE
8
0
66
1
40
0.025000
41
0.025000
0
VERTEX
8
0
10
0.467323
20
0.356496
0
VERTEX
8
0
10
0.467323
20
0.451496
0
SEQEND
8
0
0
POLYLINE
8
0
66
1
40
0.025000
41
0.025000
0
VERTEX
8
0
10
0.527323
20
0.451496
0
VERTEX
8
0
10
0.467323
20
0.451496
0
SEQEND
8
0
0
POLYLINE
8
0
66
1
40
0.015000
41
0.015000
0
VERTEX
8
0
10
0.817323
20
1.261496
0
VERTEX
8
0
10
0.818898
20
1.003937
0
VERTEX
8
0
10
0.433071
20
1.003937
0
VERTEX
8
0
10
0.433071
20
0.708661
0
VERTEX
8
0
10
0.334646
20
0.708661
0
VERTEX
8
0
10
0.334646
20
0.548760
0
VERTEX
8
0
10
0.250374
20
0.464488
0
VERTEX
8
0
10
0.158425
20
0.464488
0
SEQEND
8
0
0
POLYLINE
8
0
66
1
40
0.015000
41
0.015000
0
VERTEX
8
0
10
0.092323
20
1.266496
0
VERTEX
8
0
10
0.092323
20
1.331496
0
VERTEX
8
0
10
0.267323
20
1.331496
0
VERTEX
8
0
10
0.267323
20
1.188976
0
VERTEX
8
0
10
0.299213
20
1.185039
0
VERTEX
8
0
10
0.299986
20
0.818613
0
VERTEX
8
0
10
0.255906
20
0.818898
0
VERTEX
8
0
10
0.255906
20
0.620079
0
VERTEX
8
0
10
0.186929
20
0.551102
0
VERTEX
8
0
10
0.103307
20
0.551102
0
SEQEND
8
0
0
POLYLINE
8
0
66
1
40
0.015000
41
0.015000
0
VERTEX
8
0
10
0.008819
20
0.551102
0
VERTEX
8
0
10
0.008819
20
0.794171
0
VERTEX
8
0
10
0.008517
20
0.794473
0
VERTEX
8
0
10
-0.094614
20
0.794473
0
VERTEX
8
0
10
-0.129605
20
0.829464
0
VERTEX
8
0
10
-0.366713
20
0.829464
0
VERTEX
8
0
10
-0.390654
20
0.853405
0
VERTEX
8
0
10
-0.390654
20
0.916432
0
VERTEX
8
0
10
-0.385827
20
0.921260
0
VERTEX
8
0
10
-0.397677
20
0.921496
0
SEQEND
8
0
0
POLYLINE
8
0
66
1
40
0.015000
41
0.015000
0
VERTEX
8
0
10
-0.022677
20
0.551102
0
VERTEX
8
0
10
-0.022677
20
0.676220
0
VERTEX
8
0
10
-0.030689
20
0.684232
0
VERTEX
8
0
10
-0.053189
20
0.717441
0
SEQEND
8
0
0
POLYLINE
8
0
66
1
40
0.025000
41
0.025000
0
VERTEX
8
0
10
0.191496
20
1.046496
0
VERTEX
8
0
10
0.209513
20
0.953085
0
VERTEX
8
0
10
0.209513
20
0.738958
0
VERTEX
8
0
10
0.160948
20
0.690393
0
VERTEX
8
0
10
0.152118
20
0.690393
0
VERTEX
8
0
10
0.152118
20
0.628496
0
VERTEX
8
0
10
0.149606
20
0.625984
0
SEQEND
8
0
0
POLYLINE
8
0
66
1
40
0.025000
41
0.025000
0
VERTEX
8
0
10
-0.082677
20
1.381496
0
VERTEX
8
0
10
-1.724803
20
1.381496
0
VERTEX
8
0
10
-1.779528
20
1.326772
0
VERTEX
8
0
10
-1.779528
20
0.326589
0
VERTEX
8
0
10
-1.743511
20
0.290573
0
SEQEND
8
0
0
POLYLINE
8
0
66
1
40
0.025000
41
0.025000
0
VERTEX
8
0
10
0.562323
20
1.261496
0
VERTEX
8
0
10
0.562323
20
1.381496
0
VERTEX
8
0
10
0.512323
20
1.431496
0
VERTEX
8
0
10
-0.032677
20
1.431496
0
VERTEX
8
0
10
-0.082677
20
1.381496
0
VERTEX
8
0
10
-0.082677
20
1.206496
0
SEQEND
8
0
0
POLYLINE
8
0
66
1
40
0.025000
41
0.025000
0
VERTEX
8
0
10
-1.457677
20
-0.472441
0
VERTEX
8
0
10
-1.742636
20
-0.472441
0
VERTEX
8
0
10
-1.743511
20
-0.473316
0
VERTEX
8
0
10
-1.743511
20
0.290573
0
VERTEX
8
0
10
-1.724993
20
0.309091
0
VERTEX
8
0
10
-1.637030
20
0.309091
0
VERTEX
8
0
10
-1.562956
20
0.309091
0
VERTEX
8
0
10
-1.530548
20
0.341499
0
VERTEX
8
0
10
-1.530548
20
0.378536
0
VERTEX
8
0
10
-1.530548
20
0.443625
0
VERTEX
8
0
10
-1.527677
20
0.446496
0
SEQEND
8
0
0
POLYLINE
8
0
66
1
40
0.025000
41
0.025000
0
VERTEX
8
0
10
-0.857677
20
0.831496
0
VERTEX
8
0
10
-0.857677
20
0.596881
0
VERTEX
8
0
10
-0.858653
20
0.595906
0
SEQEND
8
0
0
POLYLINE
8
0
66
1
40
0.025000
41
0.025000
0
VERTEX
8
0
10
-0.863097
20
0.442572
0
VERTEX
8
0
10
-0.863097
20
0.157966
0
VERTEX
8
0
10
-0.866142
20
0.154921
0
SEQEND
8
0
0
POLYLINE
8
0
66
1
40
0.025000
41
0.025000
0
VERTEX
8
0
10
-0.677677
20
0.011496
0
VERTEX
8
0
10
-0.821102
20
0.154921
0
VERTEX
8
0
10
-0.866142
20
0.154921
0
VERTEX
8
0
10
-1.013465
20
0.154921
0
SEQEND
8
0
0
POLYLINE
8
0
66
1
40
0.025000
41
0.025000
0
VERTEX
8
0
10
-1.042677
20
0.861496
0
VERTEX
8
0
10
-0.887677
20
0.861496
0
VERTEX
8
0
10
-0.857677
20
0.831496
0
VERTEX
8
0
10
-0.676296
20
0.861335
0
VERTEX
8
0
10
-0.682677
20
1.106496
0
VERTEX
8
0
10
-0.632677
20
1.156496
0
VERTEX
8
0
10
-0.283504
20
1.156496
0
SEQEND
8
0
0
POLYLINE
8
0
66
1
40
0.025000
41
0.025000
0
VERTEX
8
0
10
-0.676296
20
0.861335
0
VERTEX
8
0
10
-0.632365
20
0.861335
0
VERTEX
8
0
10
-0.631432
20
0.862269
0
VERTEX
8
0
10
-0.635876
20
0.862269
0
SEQEND
8
0
0
POLYLINE
8
0
66
1
40
0.025000
41
0.025000
0
VERTEX
8
0
10
-0.541061
20
0.810417
0
VERTEX
8
0
10
-0.421061
20
0.810417
0
VERTEX
8
0
10
-0.366246
20
0.755602
0
VERTEX
8
0
10
-0.205523
20
0.755602
0
VERTEX
8
0
10
-0.167362
20
0.717441
0
SEQEND
8
0
0
POLYLINE
8
0
66
1
40
0.015000
41
0.015000
0
VERTEX
8
0
10
0.462323
20
1.261496
0
VERTEX
8
0
10
0.462323
20
1.181496
0
VERTEX
8
0
10
0.464374
20
1.058610
0
VERTEX
8
0
10
0.370079
20
1.055118
0
VERTEX
8
0
10
0.366142
20
0.751969
0
VERTEX
8
0
10
0.291339
20
0.751969
0
VERTEX
8
0
10
0.292323
20
0.556496
0
VERTEX
8
0
10
0.231811
20
0.495984
0
VERTEX
8
0
10
0.158425
20
0.495984
0
SEQEND
8
0
0
POLYLINE
8
0
66
1
40
0.025000
41
0.025000
0
VERTEX
8
0
10
0.508425
20
0.826496
0
VERTEX
8
0
10
0.508425
20
0.839982
0
VERTEX
8
0
10
0.586761
20
0.918318
0
VERTEX
8
0
10
0.613667
20
0.945223
0
VERTEX
8
0
10
0.742217
20
0.945223
0
SEQEND
8
0
0
POLYLINE
8
0
66
1
40
0.025000
41
0.025000
0
VERTEX
8
0
10
0.362323
20
1.261496
0
VERTEX
8
0
10
0.362323
20
1.132293
0
VERTEX
8
0
10
0.368525
20
1.126091
0
VERTEX
8
0
10
0.370020
20
1.126091
0
VERTEX
8
0
10
0.371515
20
1.127585
0
SEQEND
8
0
0
POLYLINE
8
0
66
1
40
0.025000
41
0.025000
0
VERTEX
8
0
10
0.535939
20
1.124596
0
VERTEX
8
0
10
0.695462
20
1.124596
0
VERTEX
8
0
10
0.712598
20
1.141732
0
VERTEX
8
0
10
0.712598
20
1.187652
0
VERTEX
8
0
10
0.719796
20
1.194849
0
VERTEX
8
0
10
0.717323
20
1.197322
0
VERTEX
8
0
10
0.717323
20
1.261496
0
SEQEND
8
0
0
POLYLINE
8
0
66
1
40
0.025000
41
0.025000
0
VERTEX
8
0
10
0.719796
20
1.127585
0
VERTEX
8
0
10
0.719796
20
1.194849
0
VERTEX
8
0
10
0.719796
20
1.259023
0
VERTEX
8
0
10
0.717323
20
1.261496
0
SEQEND
8
0
0
POLYLINE
8
0
66
1
40
0.050000
41
0.050000
0
VERTEX
8
0
10
-0.684370
20
-1.237756
0
VERTEX
8
0
10
-0.684370
20
-1.368504
0
VERTEX
8
0
10
-0.634370
20
-1.418504
0
VERTEX
8
0
10
1.692323
20
-1.418504
0
VERTEX
8
0
10
1.805315
20
-1.305511
0
VERTEX
8
0
10
1.805315
20
-1.305514
0
VERTEX
8
0
10
1.807087
20
1.188976
0
VERTEX
8
0
10
1.122047
20
1.181102
0
VERTEX
8
0
10
1.012323
20
1.071378
0
VERTEX
8
0
10
0.987323
20
0.964567
0
SEQEND
8
0
0
POLYLINE
8
0
66
1
40
0.025000
41
0.025000
0
VERTEX
8
0
10
0.952323
20
0.301496
0
VERTEX
8
0
10
0.952323
20
0.214477
0
VERTEX
8
0
10
1.006776
20
0.160024
0
VERTEX
8
0
10
1.489769
20
0.160024
0
VERTEX
8
0
10
1.537388
20
0.112406
0
VERTEX
8
0
10
1.537388
20
-0.329771
0
VERTEX
8
0
10
1.510177
20
-0.356982
0
VERTEX
8
0
10
1.451116
20
-0.356982
0
VERTEX
8
0
10
1.434646
20
-0.340512
0
SEQEND
8
0
0
POLYLINE
8
0
66
1
40
0.025000
41
0.025000
0
VERTEX
8
0
10
-0.677677
20
0.011496
0
VERTEX
8
0
10
-0.783465
20
-0.094291
0
VERTEX
8
0
10
-0.783465
20
-0.703091
0
VERTEX
8
0
10
0.267323
20
-0.703091
0
VERTEX
8
0
10
0.506127
20
-0.941894
0
VERTEX
8
0
10
0.692323
20
-0.941894
0
VERTEX
8
0
10
0.742323
20
-0.991894
0
VERTEX
8
0
10
0.742323
20
-1.193504
0
VERTEX
8
0
10
0.767323
20
-1.193504
0
SEQEND
8
0
0
POLYLINE
8
0
66
1
40
0.025000
41
0.025000
0
VERTEX
8
0
10
0.158425
20
0.432992
0
VERTEX
8
0
10
0.297328
20
0.432992
0
VERTEX
8
0
10
0.298520
20
0.434185
0
SEQEND
8
0
0
POLYLINE
8
0
66
1
40
0.025000
41
0.025000
0
VERTEX
8
0
10
-0.893609
20
0.077704
0
VERTEX
8
0
10
-0.916391
20
0.054921
0
VERTEX
8
0
10
-1.013465
20
0.054921
0
SEQEND
8
0
0
POLYLINE
8
0
66
1
40
0.015000
41
0.015000
0
VERTEX
8
0
10
-0.252677
20
-0.008504
0
VERTEX
8
0
10
-0.248031
20
0.031496
0
VERTEX
8
0
10
-0.232283
20
0.200787
0
VERTEX
8
0
10
-0.172283
20
0.275512
0
SEQEND
8
0
0
POLYLINE
8
0
66
1
40
0.025000
41
0.025000
0
VERTEX
8
0
10
-0.054173
20
0.551102
0
VERTEX
8
0
10
-0.054173
20
0.650151
0
VERTEX
8
0
10
-0.054771
20
0.650748
0
VERTEX
8
0
10
-0.213741
20
0.650748
0
VERTEX
8
0
10
-0.274370
20
0.711378
0
VERTEX
8
0
10
-0.501024
20
0.711378
0
SEQEND
8
0
0
POLYLINE
8
0
66
1
40
0.025000
41
0.025000
0
VERTEX
8
0
10
-0.117165
20
0.551102
0
VERTEX
8
0
10
-0.314961
20
0.566929
0
VERTEX
8
0
10
-0.374016
20
0.570866
0
VERTEX
8
0
10
-0.425197
20
0.543307
0
VERTEX
8
0
10
-0.493583
20
0.503937
0
VERTEX
8
0
10
-0.501024
20
0.511378
0
SEQEND
8
0
0
POLYLINE
8
0
66
1
40
0.025000
41
0.025000
0
VERTEX
8
0
10
-0.085669
20
0.551102
0
VERTEX
8
0
10
-0.085669
20
0.604196
0
VERTEX
8
0
10
-0.086143
20
0.604670
0
VERTEX
8
0
10
-0.232283
20
0.602362
0
VERTEX
8
0
10
-0.275591
20
0.618110
0
VERTEX
8
0
10
-0.354331
20
0.637795
0
VERTEX
8
0
10
-0.501024
20
0.611378
0
SEQEND
8
0
0
POLYLINE
8
0
66
1
40
0.015000
41
0.015000
0
VERTEX
8
0
10
-0.172283
20
0.464488
0
VERTEX
8
0
10
-0.352891
20
0.464488
0
VERTEX
8
0
10
-0.373724
20
0.485321
0
SEQEND
8
0
0
POLYLINE
8
0
66
1
40
0.015000
41
0.015000
0
VERTEX
8
0
10
-0.172283
20
0.495984
0
VERTEX
8
0
10
-0.251671
20
0.495984
0
VERTEX
8
0
10
-0.270329
20
0.514642
0
SEQEND
8
0
0
POLYLINE
8
0
66
1
40
0.025000
41
0.025000
0
VERTEX
8
0
10
-0.557677
20
-0.493504
0
VERTEX
8
0
10
-0.557677
20
-0.297653
0
VERTEX
8
0
10
-0.486311
20
-0.226287
0
SEQEND
8
0
0
POLYLINE
8
0
66
1
40
0.025000
41
0.025000
0
VERTEX
8
0
10
-0.457677
20
-0.493504
0
VERTEX
8
0
10
-0.457677
20
-0.394685
0
VERTEX
8
0
10
-0.456693
20
-0.393701
0
VERTEX
8
0
10
-0.456693
20
-0.319353
0
VERTEX
8
0
10
-0.386775
20
-0.249435
0
VERTEX
8
0
10
-0.271198
20
-0.133858
0
VERTEX
8
0
10
-0.263780
20
-0.133858
0
SEQEND
8
0
0
POLYLINE
8
0
66
1
40
0.025000
41
0.025000
0
VERTEX
8
0
10
0.288976
20
0.199843
0
VERTEX
8
0
10
0.288976
20
0.167717
0
SEQEND
8
0
0
POLYLINE
8
0
66
1
40
0.025000
41
0.025000
0
VERTEX
8
0
10
0.287323
20
0.201496
0
VERTEX
8
0
10
0.288976
20
0.199843
0
SEQEND
8
0
0
POLYLINE
8
0
66
1
40
0.025000
41
0.025000
0
VERTEX
8
0
10
0.592323
20
0.226496
0
VERTEX
8
0
10
0.592323
20
0.201496
0
VERTEX
8
0
10
0.592323
20
0.192717
0
VERTEX
8
0
10
0.567323
20
0.167717
0
VERTEX
8
0
10
0.388976
20
0.167717
0
SEQEND
8
0
0
POLYLINE
8
0
66
1
40
0.025000
41
0.025000
0
VERTEX
8
0
10
0.617323
20
0.201496
0
VERTEX
8
0
10
0.592323
20
0.201496
0
SEQEND
8
0
0
POLYLINE
8
0
66
1
40
0.025000
41
0.025000
0
VERTEX
8
0
10
0.288976
20
0.199843
0
VERTEX
8
0
10
0.326772
20
0.098425
0
VERTEX
8
0
10
0.483425
20
0.062992
0
VERTEX
8
0
10
0.483425
20
0.001496
0
SEQEND
8
0
0
POLYLINE
8
0
66
1
40
0.025000
41
0.025000
0
VERTEX
8
0
10
-0.492677
20
0.311496
0
VERTEX
8
0
10
-0.492677
20
0.276063
0
VERTEX
8
0
10
-0.474961
20
0.293780
0
SEQEND
8
0
0
POLYLINE
8
0
66
1
40
0.025000
41
0.025000
0
VERTEX
8
0
10
-0.492677
20
0.311496
0
VERTEX
8
0
10
-0.474961
20
0.293780
0
SEQEND
8
0
0
POLYLINE
8
0
66
1
40
0.025000
41
0.025000
0
VERTEX
8
0
10
0.277323
20
0.276063
0
VERTEX
8
0
10
0.278976
20
0.276063
0
VERTEX
8
0
10
0.288976
20
0.266063
0
VERTEX
8
0
10
0.288976
20
0.199843
0
SEQEND
8
0
0
POLYLINE
8
0
66
1
40
0.015000
41
0.015000
0
VERTEX
8
0
10
0.277323
20
0.276063
0
VERTEX
8
0
10
0.272835
20
0.271575
0
VERTEX
8
0
10
0.204724
20
0.307087
0
VERTEX
8
0
10
0.158425
20
0.307008
0
SEQEND
8
0
0
POLYLINE
8
0
66
1
40
0.020000
41
0.020000
0
VERTEX
8
0
10
-0.322677
20
0.276063
0
VERTEX
8
0
10
-0.295669
20
0.303071
0
VERTEX
8
0
10
-0.259843
20
0.338583
0
VERTEX
8
0
10
-0.172283
20
0.338504
0
SEQEND
8
0
0
POLYLINE
8
0
66
1
40
0.015000
41
0.015000
0
VERTEX
8
0
10
-0.352677
20
-0.008504
0
VERTEX
8
0
10
-0.352677
20
0.131496
0
VERTEX
8
0
10
-0.263780
20
0.224409
0
VERTEX
8
0
10
-0.236220
20
0.307008
0
VERTEX
8
0
10
-0.172283
20
0.307008
0
SEQEND
8
0
0
POLYLINE
8
0
66
1
40
0.020000
41
0.020000
0
VERTEX
8
0
10
-0.172283
20
0.401496
0
VERTEX
8
0
10
-0.237677
20
0.401496
0
VERTEX
8
0
10
-0.257677
20
0.381496
0
SEQEND
8
0
0
POLYLINE
8
0
66
1
40
0.025000
41
0.025000
0
VERTEX
8
0
10
-0.322677
20
0.330709
0
VERTEX
8
0
10
-0.311040
20
0.330709
0
VERTEX
8
0
10
-0.302690
20
0.322359
0
VERTEX
8
0
10
-0.302690
20
0.316063
0
VERTEX
8
0
10
-0.322677
20
0.276063
0
SEQEND
8
0
0
POLYLINE
8
0
66
1
40
0.025000
41
0.025000
0
VERTEX
8
0
10
-0.257677
20
0.381496
0
VERTEX
8
0
10
-0.322677
20
0.381496
0
VERTEX
8
0
10
-0.322677
20
0.330709
0
VERTEX
8
0
10
-0.322677
20
0.279370
0
VERTEX
8
0
10
-0.389370
20
0.346063
0
VERTEX
8
0
10
-0.422677
20
0.346063
0
VERTEX
8
0
10
-0.474961
20
0.293780
0
SEQEND
8
0
0
POLYLINE
8
0
66
1
40
0.025000
41
0.025000
0
VERTEX
8
0
10
1.246339
20
-1.070433
0
VERTEX
8
0
10
1.469409
20
-1.293504
0
SEQEND
8
0
0
POLYLINE
8
0
66
1
40
0.050000
41
0.050000
0
VERTEX
8
0
10
0.596732
20
-1.318504
0
VERTEX
8
0
10
0.967323
20
-1.318504
0
VERTEX
8
0
10
0.992323
20
-1.293504
0
VERTEX
8
0
10
1.469409
20
-1.293504
0
SEQEND
8
0
0
POLYLINE
8
0
66
1
40
0.025000
41
0.025000
0
VERTEX
8
0
10
0.467323
20
0.294996
0
VERTEX
8
0
10
0.467323
20
0.322555
0
VERTEX
8
0
10
0.423665
20
0.322555
0
VERTEX
8
0
10
0.380079
20
0.366142
0
SEQEND
8
0
0
POLYLINE
8
0
66
1
40
0.025000
41
0.025000
0
VERTEX
8
0
10
0.467323
20
0.322555
0
VERTEX
8
0
10
0.467323
20
0.356496
0
SEQEND
8
0
0
POLYLINE
8
0
66
1
40
0.025000
41
0.025000
0
VERTEX
8
0
10
0.397638
20
0.625984
0
VERTEX
8
0
10
0.393701
20
0.625984
0
VERTEX
8
0
10
0.393701
20
0.582677
0
VERTEX
8
0
10
0.380079
20
0.480315
0
SEQEND
8
0
0
POLYLINE
8
0
66
1
40
0.020000
41
0.020000
0
VERTEX
8
0
10
0.158425
20
0.370000
0
VERTEX
8
0
10
0.369230
20
0.370000
0
VERTEX
8
0
10
0.375182
20
0.364048
0
VERTEX
8
0
10
0.380079
20
0.366142
0
SEQEND
8
0
0
POLYLINE
8
0
66
1
40
0.050000
41
0.050000
0
VERTEX
8
0
10
0.962323
20
0.011496
0
VERTEX
8
0
10
0.874016
20
0.099803
0
VERTEX
8
0
10
0.874016
20
0.796496
0
VERTEX
8
0
10
0.983150
20
0.796496
0
SEQEND
8
0
0
POLYLINE
8
0
66
1
40
0.025000
41
0.025000
0
VERTEX
8
0
10
1.592323
20
-0.788504
0
VERTEX
8
0
10
1.692598
20
-0.788504
0
VERTEX
8
0
10
1.712598
20
-0.768504
0
SEQEND
8
0
0
POLYLINE
8
0
66
1
40
0.050000
41
0.050000
0
VERTEX
8
0
10
1.469409
20
-1.293504
0
VERTEX
8
0
10
1.592323
20
-1.293504
0
VERTEX
8
0
10
1.712598
20
-1.173228
0
VERTEX
8
0
10
1.712598
20
-0.768504
0
VERTEX
8
0
10
1.712598
20
0.311220
0
VERTEX
8
0
10
1.592323
20
0.431496
0
VERTEX
8
0
10
1.467323
20
0.431496
0
SEQEND
8
0
0
POLYLINE
8
0
66
1
40
0.015000
41
0.015000
0
VERTEX
8
0
10
-0.022677
20
0.220394
0
VERTEX
8
0
10
-0.022677
20
-0.318504
0
VERTEX
8
0
10
0.027323
20
-0.368504
0
VERTEX
8
0
10
0.367323
20
-0.368504
0
VERTEX
8
0
10
0.547323
20
-0.668504
0
VERTEX
8
0
10
1.267323
20
-0.668504
0
VERTEX
8
0
10
1.267323
20
-0.868504
0
VERTEX
8
0
10
1.467323
20
-0.868504
0
VERTEX
8
0
10
1.492323
20
-0.788504
0
SEQEND
8
0
0
POLYLINE
8
0
66
1
40
0.020000
41
0.020000
0
VERTEX
8
0
10
0.008819
20
0.220394
0
VERTEX
8
0
10
0.008819
20
-0.268504
0
VERTEX
8
0
10
0.058819
20
-0.318504
0
VERTEX
8
0
10
0.417323
20
-0.318504
0
VERTEX
8
0
10
0.717323
20
-0.618504
0
VERTEX
8
0
10
1.319488
20
-0.618504
0
VERTEX
8
0
10
1.323386
20
-0.753543
0
SEQEND
8
0
0
POLYLINE
8
0
66
1
40
0.020000
41
0.020000
0
VERTEX
8
0
10
0.040315
20
0.220394
0
VERTEX
8
0
10
0.040315
20
-0.053719
0
VERTEX
8
0
10
0.255100
20
-0.268504
0
VERTEX
8
0
10
0.467323
20
-0.268504
0
VERTEX
8
0
10
0.767323
20
-0.568504
0
VERTEX
8
0
10
1.567322
20
-0.568504
0
VERTEX
8
0
10
1.617323
20
-0.518504
0
VERTEX
8
0
10
1.617323
20
0.181496
0
VERTEX
8
0
10
1.497322
20
0.301496
0
VERTEX
8
0
10
1.291496
20
0.301496
0
SEQEND
8
0
0
POLYLINE
8
0
66
1
40
0.025000
41
0.025000
0
VERTEX
8
0
10
-1.042677
20
0.761496
0
VERTEX
8
0
10
-0.954354
20
0.761496
0
VERTEX
8
0
10
-0.943244
20
0.750387
0
VERTEX
8
0
10
-0.943244
20
0.665280
0
VERTEX
8
0
10
-1.021258
20
0.587266
0
SEQEND
8
0
0
POLYLINE
8
0
66
1
40
0.015000
41
0.015000
0
VERTEX
8
0
10
0.473340
20
0.230140
0
VERTEX
8
0
10
0.408309
20
0.230140
0
VERTEX
8
0
10
0.299945
20
0.338504
0
VERTEX
8
0
10
0.158425
20
0.338504
0
SEQEND
8
0
0
POLYLINE
8
0
66
1
40
0.025000
41
0.025000
0
VERTEX
8
0
10
-0.474961
20
0.293780
0
VERTEX
8
0
10
-0.432677
20
0.251496
0
VERTEX
8
0
10
-0.429409
20
-0.118475
0
VERTEX
8
0
10
-0.692913
20
-0.114173
0
VERTEX
8
0
10
-0.692913
20
-0.602362
0
VERTEX
8
0
10
-0.057677
20
-0.602362
0
VERTEX
8
0
10
-0.057677
20
-0.493504
0
SEQEND
8
0
0
POLYLINE
8
0
66
1
40
0.025000
41
0.025000
0
VERTEX
8
0
10
-0.270329
20
0.514642
0
VERTEX
8
0
10
-0.270329
20
0.340074
0
VERTEX
8
0
10
-0.193696
20
0.263441
0
VERTEX
8
0
10
-0.193696
20
-0.063775
0
VERTEX
8
0
10
-0.263780
20
-0.133858
0
SEQEND
8
0
0
POLYLINE
8
0
66
1
40
0.025000
41
0.025000
0
VERTEX
8
0
10
-0.373724
20
0.485321
0
VERTEX
8
0
10
-0.373724
20
0.348458
0
VERTEX
8
0
10
-0.439066
20
0.283117
0
VERTEX
8
0
10
-0.439066
20
-0.179041
0
VERTEX
8
0
10
-0.486311
20
-0.226287
0
SEQEND
8
0
0
POLYLINE
8
0
66
1
40
0.025000
41
0.025000
0
VERTEX
8
0
10
-1.021258
20
0.587266
0
VERTEX
8
0
10
-1.021258
20
0.470077
0
VERTEX
8
0
10
-0.623081
20
0.071900
0
VERTEX
8
0
10
0.384179
20
0.071900
0
VERTEX
8
0
10
0.473340
20
0.161061
0
VERTEX
8
0
10
0.473340
20
0.230140
0
SEQEND
8
0
0
INSERT
8
0
2
EPAD
10
0.149606
20
0.625984
41
0.050000
42
0.050000
0
CIRCLE
8
0
10
0.149606
20
0.625984
40
0.025000
0
INSERT
8
0
2
EPAD
10
0.397638
20
0.625984
41
0.050000
42
0.050000
0
CIRCLE
8
0
10
0.397638
20
0.625984
40
0.025000
0
INSERT
8
0
2
EPAD
10
-0.858653
20
0.595906
41
0.050000
42
0.050000
0
CIRCLE
8
0
10
-0.858653
20
0.595905
40
0.025000
0
INSERT
8
0
2
EPAD
10
-0.863097
20
0.442572
41
0.050000
42
0.050000
0
CIRCLE
8
0
10
-0.863097
20
0.442572
40
0.025000
0
INSERT
8
0
2
EPAD
10
-0.635876
20
0.862269
41
0.050000
42
0.050000
0
CIRCLE
8
0
10
-0.635876
20
0.862269
40
0.025000
0
INSERT
8
0
2
EPAD
10
-0.541061
20
0.810417
41
0.050000
42
0.050000
0
CIRCLE
8
0
10
-0.541061
20
0.810417
40
0.025000
0
INSERT
8
0
2
EPAD
10
0.742217
20
0.945223
41
0.050000
42
0.050000
0
CIRCLE
8
0
10
0.742217
20
0.945223
40
0.025000
0
INSERT
8
0
2
EPAD
10
0.719796
20
1.127585
41
0.050000
42
0.050000
0
CIRCLE
8
0
10
0.719796
20
1.127585
40
0.025000
0
INSERT
8
0
2
EPAD
10
0.371515
20
1.127585
41
0.050000
42
0.050000
0
CIRCLE
8
0
10
0.371515
20
1.127585
40
0.025000
0
INSERT
8
0
2
EPAD
10
0.535939
20
1.124596
41
0.050000
42
0.050000
0
CIRCLE
8
0
10
0.535939
20
1.124596
40
0.025000
0
INSERT
8
0
2
EPAD
10
0.298520
20
0.434185
41
0.050000
42
0.050000
0
CIRCLE
8
0
10
0.298520
20
0.434185
40
0.025000
0
INSERT
8
0
2
EPAD
10
-0.893609
20
0.077704
41
0.050000
42
0.050000
0
CIRCLE
8
0
10
-0.893609
20
0.077704
40
0.025000
0
INSERT
8
0
2
EPAD
10
-0.373724
20
0.485321
41
0.040000
42
0.040000
0
CIRCLE
8
0
10
-0.373724
20
0.485321
40
0.015000
0
INSERT
8
0
2
EPAD
10
-0.270329
20
0.514642
41
0.040000
42
0.040000
0
CIRCLE
8
0
10
-0.270329
20
0.514642
40
0.015000
0
INSERT
8
0
2
EPAD
10
-0.486311
20
-0.226287
41
0.050000
42
0.050000
0
CIRCLE
8
0
10
-0.486311
20
-0.226287
40
0.025000
0
INSERT
8
0
2
EPAD
10
-0.263780
20
-0.133858
41
0.050000
42
0.050000
0
CIRCLE
8
0
10
-0.263780
20
-0.133858
40
0.025000
0
INSERT
8
0
2
EPAD
10
-1.021258
20
0.587266
41
0.050000
42
0.050000
0
CIRCLE
8
0
10
-1.021258
20
0.587266
40
0.025000
0
INSERT
8
0
2
EPAD
10
0.473340
20
0.230140
41
0.050000
42
0.050000
0
CIRCLE
8
0
10
0.473340
20
0.230140
40
0.025000
0
INSERT
8
0
2
RPAD
10
-0.684370
20
-1.237756
41
0.080000
42
0.080000
50
0.000000
0
CIRCLE
8
0
10
-0.684370
20
-1.237756
40
0.025000
0
INSERT
8
0
2
RPAD
10
-0.584370
20
-1.237756
41
0.080000
42
0.080000
50
0.000000
0
CIRCLE
8
0
10
-0.584370
20
-1.237756
40
0.025000
0
INSERT
8
0
2
RPAD
10
-0.484370
20
-1.237756
41
0.080000
42
0.080000
50
0.000000
0
CIRCLE
8
0
10
-0.484370
20
-1.237756
40
0.025000
0
INSERT
8
0
2
EPAD
10
-0.919016
20
-1.159016
41
0.070000
42
0.070000
0
CIRCLE
8
0
10
-0.919016
20
-1.159016
40
0.025000
0
INSERT
8
0
2
EPAD
10
-0.919016
20
-1.059016
41
0.070000
42
0.070000
0
CIRCLE
8
0
10
-0.919016
20
-1.059016
40
0.025000
0
INSERT
8
0
2
RPAD
10
-1.214291
20
-1.208228
41
0.050394
42
0.050394
50
90.000000
0
CIRCLE
8
0
10
-1.214291
20
-1.208228
40
0.010000
0
INSERT
8
0
2
EPAD
10
-1.214291
20
-1.208228
41
0.050394
42
0.050394
0
CIRCLE
8
0
10
-1.214291
20
-1.208228
40
0.010000
0
INSERT
8
0
2
EPAD
10
-1.214291
20
-1.208228
41
0.050394
42
0.050394
0
CIRCLE
8
0
10
-1.214291
20
-1.208228
40
0.010000
0
INSERT
8
0
2
EPAD
10
-1.214291
20
-1.070433
41
0.050394
42
0.050394
0
CIRCLE
8
0
10
-1.214291
20
-1.070433
40
0.033465
0
INSERT
8
0
2
EPAD
10
-0.249724
20
-1.160591
41
0.070000
42
0.070000
0
CIRCLE
8
0
10
-0.249724
20
-1.160591
40
0.025000
0
INSERT
8
0
2
EPAD
10
-0.249724
20
-1.060591
41
0.070000
42
0.070000
0
CIRCLE
8
0
10
-0.249724
20
-1.060591
40
0.025000
0
INSERT
8
0
2
RPAD
10
0.084921
20
-1.208228
41
0.050394
42
0.050394
50
90.000000
0
CIRCLE
8
0
10
0.084921
20
-1.208228
40
0.010000
0
INSERT
8
0
2
EPAD
10
0.084921
20
-1.208228
41
0.050394
42
0.050394
0
CIRCLE
8
0
10
0.084921
20
-1.208228
40
0.010000
0
INSERT
8
0
2
EPAD
10
0.084921
20
-1.208228
41
0.050394
42
0.050394
0
CIRCLE
8
0
10
0.084921
20
-1.208228
40
0.010000
0
INSERT
8
0
2
EPAD
10
0.084921
20
-1.070433
41
0.050394
42
0.050394
0
CIRCLE
8
0
10
0.084921
20
-1.070433
40
0.033465
0
INSERT
8
0
2
RPAD
10
-1.529252
20
-1.099961
41
0.080000
42
0.080000
50
-90.000000
0
CIRCLE
8
0
10
-1.529252
20
-1.099961
40
0.025000
0
INSERT
8
0
2
RPAD
10
-1.529252
20
-1.199961
41
0.080000
42
0.080000
50
-90.000000
0
CIRCLE
8
0
10
-1.529252
20
-1.199961
40
0.025000
0
INSERT
8
0
2
RPAD
10
0.496732
20
-1.237756
41
0.080000
42
0.080000
50
0.000000
0
CIRCLE
8
0
10
0.496732
20
-1.237756
40
0.025000
0
INSERT
8
0
2
RPAD
10
0.596732
20
-1.237756
41
0.080000
42
0.080000
50
0.000000
0
CIRCLE
8
0
10
0.596732
20
-1.237756
40
0.025000
0
INSERT
8
0
2
RPAD
10
0.696732
20
-1.237756
41
0.080000
42
0.080000
50
0.000000
0
CIRCLE
8
0
10
0.696732
20
-1.237756
40
0.025000
0
INSERT
8
0
2
EPAD
10
0.931378
20
-1.180276
41
0.070000
42
0.070000
0
CIRCLE
8
0
10
0.931378
20
-1.180276
40
0.025000
0
INSERT
8
0
2
EPAD
10
0.931378
20
-1.080276
41
0.070000
42
0.070000
0
CIRCLE
8
0
10
0.931378
20
-1.080276
40
0.025000
0
INSERT
8
0
2
RPAD
10
1.246339
20
-1.208228
41
0.050394
42
0.050394
50
90.000000
0
CIRCLE
8
0
10
1.246339
20
-1.208228
40
0.010000
0
INSERT
8
0
2
EPAD
10
1.246339
20
-1.208228
41
0.050394
42
0.050394
0
CIRCLE
8
0
10
1.246339
20
-1.208228
40
0.010000
0
INSERT
8
0
2
EPAD
10
1.246339
20
-1.208228
41
0.050394
42
0.050394
0
CIRCLE
8
0
10
1.246339
20
-1.208228
40
0.010000
0
INSERT
8
0
2
EPAD
10
1.246339
20
-1.070433
41
0.050394
42
0.050394
0
CIRCLE
8
0
10
1.246339
20
-1.070433
40
0.033465
0
INSERT
8
0
2
RPAD
10
-0.172283
20
0.495984
41
0.022000
42
0.059000
50
90.000000
0
INSERT
8
0
2
RPAD
10
-0.172283
20
0.464488
41
0.022000
42
0.059000
50
90.000000
0
INSERT
8
0
2
RPAD
10
-0.172283
20
0.432992
41
0.022000
42
0.059000
50
90.000000
0
INSERT
8
0
2
RPAD
10
-0.172283
20
0.401496
41
0.022000
42
0.059000
50
90.000000
0
INSERT
8
0
2
RPAD
10
-0.172283
20
0.370000
41
0.022000
42
0.059000
50
90.000000
0
INSERT
8
0
2
RPAD
10
-0.172283
20
0.338504
41
0.022000
42
0.059000
50
90.000000
0
INSERT
8
0
2
RPAD
10
-0.172283
20
0.307008
41
0.022000
42
0.059000
50
90.000000
0
INSERT
8
0
2
RPAD
10
-0.172283
20
0.275512
41
0.022000
42
0.059000
50
90.000000
0
INSERT
8
0
2
RPAD
10
-0.117165
20
0.220394
41
0.022000
42
0.059000
50
0.000000
0
INSERT
8
0
2
RPAD
10
-0.085669
20
0.220394
41
0.022000
42
0.059000
50
0.000000
0
INSERT
8
0
2
RPAD
10
-0.054173
20
0.220394
41
0.022000
42
0.059000
50
0.000000
0
INSERT
8
0
2
RPAD
10
-0.022677
20
0.220394
41
0.022000
42
0.059000
50
0.000000
0
INSERT
8
0
2
RPAD
10
0.008819
20
0.220394
41
0.022000
42
0.059000
50
0.000000
0
INSERT
8
0
2
RPAD
10
0.040315
20
0.220394
41
0.022000
42
0.059000
50
0.000000
0
INSERT
8
0
2
RPAD
10
0.071811
20
0.220394
41
0.022000
42
0.059000
50
0.000000
0
INSERT
8
0
2
RPAD
10
0.103307
20
0.220394
41
0.022000
42
0.059000
50
0.000000
0
INSERT
8
0
2
RPAD
10
0.158425
20
0.275512
41
0.022000
42
0.059000
50
90.000000
0
INSERT
8
0
2
RPAD
10
0.158425
20
0.307008
41
0.022000
42
0.059000
50
90.000000
0
INSERT
8
0
2
RPAD
10
0.158425
20
0.338504
41
0.022000
42
0.059000
50
90.000000
0
INSERT
8
0
2
RPAD
10
0.158425
20
0.370000
41
0.022000
42
0.059000
50
90.000000
0
INSERT
8
0
2
RPAD
10
0.158425
20
0.401496
41
0.022000
42
0.059000
50
90.000000
0
INSERT
8
0
2
RPAD
10
0.158425
20
0.432992
41
0.022000
42
0.059000
50
90.000000
0
INSERT
8
0
2
RPAD
10
0.158425
20
0.464488
41
0.022000
42
0.059000
50
90.000000
0
INSERT
8
0
2
RPAD
10
0.158425
20
0.495984
41
0.022000
42
0.059000
50
90.000000
0
INSERT
8
0
2
RPAD
10
0.103307
20
0.551102
41
0.022000
42
0.059000
50
0.000000
0
INSERT
8
0
2
RPAD
10
0.071811
20
0.551102
41
0.022000
42
0.059000
50
0.000000
0
INSERT
8
0
2
RPAD
10
0.040315
20
0.551102
41
0.022000
42
0.059000
50
0.000000
0
INSERT
8
0
2
RPAD
10
0.008819
20
0.551102
41
0.022000
42
0.059000
50
0.000000
0
INSERT
8
0
2
RPAD
10
-0.022677
20
0.551102
41
0.022000
42
0.059000
50
0.000000
0
INSERT
8
0
2
RPAD
10
-0.054173
20
0.551102
41
0.022000
42
0.059000
50
0.000000
0
INSERT
8
0
2
RPAD
10
-0.085669
20
0.551102
41
0.022000
42
0.059000
50
0.000000
0
INSERT
8
0
2
RPAD
10
-0.117165
20
0.551102
41
0.022000
42
0.059000
50
0.000000
0
INSERT
8
0
2
RPAD
10
-0.557677
20
-0.493504
41
0.080000
42
0.080000
50
-180.000000
0
CIRCLE
8
0
10
-0.557677
20
-0.493504
40
0.025000
0
INSERT
8
0
2
RPAD
10
-0.457677
20
-0.493504
41
0.080000
42
0.080000
50
-180.000000
0
CIRCLE
8
0
10
-0.457677
20
-0.493504
40
0.025000
0
INSERT
8
0
2
RPAD
10
-0.357677
20
-0.493504
41
0.080000
42
0.080000
50
-180.000000
0
CIRCLE
8
0
10
-0.357677
20
-0.493504
40
0.025000
0
INSERT
8
0
2
RPAD
10
-0.257677
20
-0.493504
41
0.080000
42
0.080000
50
-180.000000
0
CIRCLE
8
0
10
-0.257677
20
-0.493504
40
0.025000
0
INSERT
8
0
2
RPAD
10
-0.157677
20
-0.493504
41
0.080000
42
0.080000
50
-180.000000
0
CIRCLE
8
0
10
-0.157677
20
-0.493504
40
0.025000
0
INSERT
8
0
2
RPAD
10
-0.057677
20
-0.493504
41
0.080000
42
0.080000
50
-180.000000
0
CIRCLE
8
0
10
-0.057677
20
-0.493504
40
0.025000
0
INSERT
8
0
2
RPAD
10
0.042323
20
-0.493504
41
0.080000
42
0.080000
50
-180.000000
0
CIRCLE
8
0
10
0.042323
20
-0.493504
40
0.025000
0
INSERT
8
0
2
RPAD
10
0.142323
20
-0.493504
41
0.080000
42
0.080000
50
-180.000000
0
CIRCLE
8
0
10
0.142323
20
-0.493504
40
0.025000
0
INSERT
8
0
2
RPAD
10
0.242323
20
-0.493504
41
0.080000
42
0.080000
50
-180.000000
0
CIRCLE
8
0
10
0.242323
20
-0.493504
40
0.025000
0
INSERT
8
0
2
RPAD
10
-1.402677
20
0.861496
41
0.025000
42
0.080000
50
90.000000
0
INSERT
8
0
2
RPAD
10
-1.402677
20
0.811496
41
0.025000
42
0.080000
50
90.000000
0
INSERT
8
0
2
RPAD
10
-1.402677
20
0.761496
41
0.025000
42
0.080000
50
90.000000
0
INSERT
8
0
2
RPAD
10
-1.402677
20
0.711496
41
0.025000
42
0.080000
50
90.000000
0
INSERT
8
0
2
RPAD
10
-1.042677
20
0.711496
41
0.025000
42
0.080000
50
-90.000000
0
INSERT
8
0
2
RPAD
10
-1.042677
20
0.761496
41
0.025000
42
0.080000
50
-90.000000
0
INSERT
8
0
2
RPAD
10
-1.042677
20
0.811496
41
0.025000
42
0.080000
50
-90.000000
0
INSERT
8
0
2
RPAD
10
-1.042677
20
0.861496
41
0.025000
42
0.080000
50
-90.000000
0
INSERT
8
0
2
RPAD
10
-1.662677
20
0.756496
41
0.045000
42
0.071000
50
0.000000
0
INSERT
8
0
2
RPAD
10
-1.548504
20
0.756496
41
0.045000
42
0.071000
50
0.000000
0
INSERT
8
0
2
RPAD
10
-1.548504
20
0.861496
41
0.045000
42
0.071000
50
180.000000
0
INSERT
8
0
2
RPAD
10
-1.662677
20
0.861496
41
0.045000
42
0.071000
50
180.000000
0
INSERT
8
0
2
RPAD
10
-1.282677
20
0.591496
41
0.045000
42
0.071000
50
180.000000
0
INSERT
8
0
2
RPAD
10
-1.396850
20
0.591496
41
0.045000
42
0.071000
50
180.000000
0
INSERT
8
0
2
EPAD
10
-1.627677
20
0.596496
41
0.070000
42
0.070000
0
CIRCLE
8
0
10
-1.627677
20
0.596496
40
0.025000
0
INSERT
8
0
2
EPAD
10
-1.527677
20
0.596496
41
0.070000
42
0.070000
0
CIRCLE
8
0
10
-1.527677
20
0.596496
40
0.025000
0
INSERT
8
0
2
RPAD
10
-1.627677
20
0.446496
41
0.080000
42
0.080000
50
0.000000
0
CIRCLE
8
0
10
-1.627677
20
0.446496
40
0.025000
0
INSERT
8
0
2
RPAD
10
-1.527677
20
0.446496
41
0.080000
42
0.080000
50
0.000000
0
CIRCLE
8
0
10
-1.527677
20
0.446496
40
0.025000
0
INSERT
8
0
2
RPAD
10
-1.373465
20
0.154921
41
0.025000
42
0.080000
50
90.000000
0
INSERT
8
0
2
RPAD
10
-1.373465
20
0.104921
41
0.025000
42
0.080000
50
90.000000
0
INSERT
8
0
2
RPAD
10
-1.373465
20
0.054921
41
0.025000
42
0.080000
50
90.000000
0
INSERT
8
0
2
RPAD
10
-1.373465
20
0.004921
41
0.025000
42
0.080000
50
90.000000
0
INSERT
8
0
2
RPAD
10
-1.013465
20
0.004921
41
0.025000
42
0.080000
50
-90.000000
0
INSERT
8
0
2
RPAD
10
-1.013465
20
0.054921
41
0.025000
42
0.080000
50
-90.000000
0
INSERT
8
0
2
RPAD
10
-1.013465
20
0.104921
41
0.025000
42
0.080000
50
-90.000000
0
INSERT
8
0
2
RPAD
10
-1.013465
20
0.154921
41
0.025000
42
0.080000
50
-90.000000
0
INSERT
8
0
2
RPAD
10
-1.626535
20
0.040551
41
0.045000
42
0.071000
50
0.000000
0
INSERT
8
0
2
RPAD
10
-1.512362
20
0.040551
41
0.045000
42
0.071000
50
0.000000
0
INSERT
8
0
2
RPAD
10
-1.276142
20
-0.116929
41
0.045000
42
0.071000
50
180.000000
0
INSERT
8
0
2
RPAD
10
-1.390315
20
-0.116929
41
0.045000
42
0.071000
50
180.000000
0
INSERT
8
0
2
RPAD
10
-1.512362
20
0.158661
41
0.045000
42
0.071000
50
180.000000
0
INSERT
8
0
2
RPAD
10
-1.626535
20
0.158661
41
0.045000
42
0.071000
50
180.000000
0
INSERT
8
0
2
RPAD
10
-1.626535
20
-0.274409
41
0.080000
42
0.080000
50
0.000000
0
CIRCLE
8
0
10
-1.626535
20
-0.274409
40
0.025000
0
INSERT
8
0
2
RPAD
10
-1.526535
20
-0.274409
41
0.080000
42
0.080000
50
0.000000
0
CIRCLE
8
0
10
-1.526535
20
-0.274409
40
0.025000
0
INSERT
8
0
2
EPAD
10
-1.608425
20
-0.116929
41
0.070000
42
0.070000
0
CIRCLE
8
0
10
-1.608425
20
-0.116929
40
0.025000
0
INSERT
8
0
2
EPAD
10
-1.508425
20
-0.116929
41
0.070000
42
0.070000
0
CIRCLE
8
0
10
-1.508425
20
-0.116929
40
0.025000
0
INSERT
8
0
2
RPAD
10
1.344646
20
-0.068512
41
0.275000
42
0.275000
50
0.000000
0
INSERT
8
0
2
RPAD
10
1.254646
20
-0.340512
41
0.060000
42
0.100000
50
0.000000
0
INSERT
8
0
2
RPAD
10
1.434646
20
-0.340512
41
0.060000
42
0.100000
50
0.000000
0
INSERT
8
0
2
RPAD
10
1.073268
20
-0.176102
41
0.045000
42
0.071000
50
180.000000
0
INSERT
8
0
2
RPAD
10
0.959094
20
-0.176102
41
0.045000
42
0.071000
50
180.000000
0
INSERT
8
0
2
RPAD
10
1.209213
20
-0.753543
41
0.045000
42
0.071000
50
0.000000
0
INSERT
8
0
2
RPAD
10
1.323386
20
-0.753543
41
0.045000
42
0.071000
50
0.000000
0
INSERT
8
0
2
RPAD
10
1.080276
20
-0.746693
41
0.050000
42
0.050000
50
0.000000
0
CIRCLE
8
0
10
1.080276
20
-0.746693
40
0.030000
0
INSERT
8
0
2
EPAD
10
0.980276
20
-0.746693
41
0.050000
42
0.050000
0
CIRCLE
8
0
10
0.980276
20
-0.746693
40
0.030000
0
INSERT
8
0
2
EPAD
10
0.980276
20
-0.446693
41
0.050000
42
0.050000
0
CIRCLE
8
0
10
0.980276
20
-0.446693
40
0.030000
0
INSERT
8
0
2
EPAD
10
1.080276
20
-0.446693
41
0.050000
42
0.050000
0
CIRCLE
8
0
10
1.080276
20
-0.446693
40
0.030000
0
INSERT
8
0
2
RPAD
10
0.962323
20
0.011496
41
0.080000
42
0.080000
50
0.000000
0
CIRCLE
8
0
10
0.962323
20
0.011496
40
0.025000
0
INSERT
8
0
2
RPAD
10
1.062323
20
0.011496
41
0.080000
42
0.080000
50
0.000000
0
CIRCLE
8
0
10
1.062323
20
0.011496
40
0.025000
0
INSERT
8
0
2
RPAD
10
1.097323
20
0.796496
41
0.045000
42
0.071000
50
180.000000
0
INSERT
8
0
2
RPAD
10
0.983150
20
0.796496
41
0.045000
42
0.071000
50
180.000000
0
INSERT
8
0
2
RPAD
10
1.052323
20
0.301496
41
0.050000
42
0.050000
50
0.000000
0
CIRCLE
8
0
10
1.052323
20
0.301496
40
0.030000
0
INSERT
8
0
2
EPAD
10
0.952323
20
0.301496
41
0.050000
42
0.050000
0
CIRCLE
8
0
10
0.952323
20
0.301496
40
0.030000
0
INSERT
8
0
2
EPAD
10
0.952323
20
0.601496
41
0.050000
42
0.050000
0
CIRCLE
8
0
10
0.952323
20
0.601496
40
0.030000
0
INSERT
8
0
2
EPAD
10
1.052323
20
0.601496
41
0.050000
42
0.050000
0
CIRCLE
8
0
10
1.052323
20
0.601496
40
0.030000
0
INSERT
8
0
2
RPAD
10
1.397323
20
0.973496
41
0.275000
42
0.275000
50
0.000000
0
INSERT
8
0
2
RPAD
10
1.307323
20
0.701496
41
0.060000
42
0.100000
50
0.000000
0
INSERT
8
0
2
RPAD
10
1.487323
20
0.701496
41
0.060000
42
0.100000
50
0.000000
0
INSERT
8
0
2
RPAD
10
0.987323
20
0.981496
41
0.080000
42
0.080000
50
0.000000
0
CIRCLE
8
0
10
0.987323
20
0.981496
40
0.025000
0
INSERT
8
0
2
RPAD
10
1.087323
20
0.981496
41
0.080000
42
0.080000
50
0.000000
0
CIRCLE
8
0
10
1.087323
20
0.981496
40
0.025000
0
INSERT
8
0
2
RPAD
10
1.177323
20
0.301496
41
0.045000
42
0.071000
50
0.000000
0
INSERT
8
0
2
RPAD
10
1.291496
20
0.301496
41
0.045000
42
0.071000
50
0.000000
0
INSERT
8
0
2
RPAD
10
0.527323
20
0.451496
41
0.040000
42
0.060000
50
-90.000000
0
INSERT
8
0
2
RPAD
10
0.527323
20
0.392496
41
0.040000
42
0.060000
50
-90.000000
0
INSERT
8
0
2
RPAD
10
0.635323
20
0.392496
41
0.080000
42
0.100000
50
-90.000000
0
INSERT
8
0
2
RPAD
10
0.692323
20
0.392496
41
0.035000
42
0.040000
50
-180.000000
0
INSERT
8
0
2
RPAD
10
0.568323
20
0.392496
41
0.035000
42
0.040000
50
-180.000000
0
INSERT
8
0
2
RPAD
10
0.527323
20
0.333496
41
0.040000
42
0.060000
50
-90.000000
0
INSERT
8
0
2
RPAD
10
0.380079
20
0.480315
41
0.045000
42
0.071000
50
270.000000
0
INSERT
8
0
2
RPAD
10
0.380079
20
0.366142
41
0.045000
42
0.071000
50
270.000000
0
INSERT
8
0
2
EPAD
10
-0.322677
20
0.276063
41
0.080000
42
0.080000
0
CIRCLE
8
0
10
-0.322677
20
0.276063
40
0.025000
0
INSERT
8
0
2
EPAD
10
0.277323
20
0.276063
41
0.080000
42
0.080000
0
CIRCLE
8
0
10
0.277323
20
0.276063
40
0.025000
0
INSERT
8
0
2
EPAD
10
0.288976
20
0.167717
41
0.070000
42
0.070000
0
CIRCLE
8
0
10
0.288976
20
0.167717
40
0.025000
0
INSERT
8
0
2
EPAD
10
0.388976
20
0.167717
41
0.070000
42
0.070000
0
CIRCLE
8
0
10
0.388976
20
0.167717
40
0.025000
0
INSERT
8
0
2
RPAD
10
0.483425
20
0.001496
41
0.050394
42
0.050394
50
0.000000
0
CIRCLE
8
0
10
0.483425
20
0.001496
40
0.010000
0
INSERT
8
0
2
EPAD
10
0.483425
20
0.001496
41
0.050394
42
0.050394
0
CIRCLE
8
0
10
0.483425
20
0.001496
40
0.010000
0
INSERT
8
0
2
EPAD
10
0.483425
20
0.001496
41
0.050394
42
0.050394
0
CIRCLE
8
0
10
0.483425
20
0.001496
40
0.010000
0
INSERT
8
0
2
EPAD
10
0.621220
20
0.001496
41
0.050394
42
0.050394
0
CIRCLE
8
0
10
0.621220
20
0.001496
40
0.033465
0
INSERT
8
0
2
EPAD
10
0.527323
20
0.571496
41
0.070000
42
0.070000
0
CIRCLE
8
0
10
0.527323
20
0.571496
40
0.025000
0
INSERT
8
0
2
EPAD
10
0.627323
20
0.571496
41
0.070000
42
0.070000
0
CIRCLE
8
0
10
0.627323
20
0.571496
40
0.025000
0
INSERT
8
0
2
RPAD
10
0.508425
20
0.826496
41
0.050394
42
0.050394
50
0.000000
0
CIRCLE
8
0
10
0.508425
20
0.826496
40
0.010000
0
INSERT
8
0
2
EPAD
10
0.508425
20
0.826496
41
0.050394
42
0.050394
0
CIRCLE
8
0
10
0.508425
20
0.826496
40
0.010000
0
INSERT
8
0
2
EPAD
10
0.508425
20
0.826496
41
0.050394
42
0.050394
0
CIRCLE
8
0
10
0.508425
20
0.826496
40
0.010000
0
INSERT
8
0
2
EPAD
10
0.646220
20
0.826496
41
0.050394
42
0.050394
0
CIRCLE
8
0
10
0.646220
20
0.826496
40
0.033465
0
INSERT
8
0
2
EPAD
10
-0.677677
20
0.011496
41
0.070000
42
0.070000
0
CIRCLE
8
0
10
-0.677677
20
0.011496
40
0.025000
0
INSERT
8
0
2
EPAD
10
-0.677677
20
0.311496
41
0.070000
42
0.070000
0
CIRCLE
8
0
10
-0.677677
20
0.311496
40
0.025000
0
INSERT
8
0
2
EPAD
10
-0.582677
20
0.311496
41
0.070000
42
0.070000
0
CIRCLE
8
0
10
-0.582677
20
0.311496
40
0.025000
0
INSERT
8
0
2
EPAD
10
-0.582677
20
0.011496
41
0.070000
42
0.070000
0
CIRCLE
8
0
10
-0.582677
20
0.011496
40
0.025000
0
INSERT
8
0
2
EPAD
10
-0.492677
20
0.011496
41
0.070000
42
0.070000
0
CIRCLE
8
0
10
-0.492677
20
0.011496
40
0.025000
0
INSERT
8
0
2
EPAD
10
-0.492677
20
0.311496
41
0.070000
42
0.070000
0
CIRCLE
8
0
10
-0.492677
20
0.311496
40
0.025000
0
INSERT
8
0
2
RPAD
10
-0.032677
20
0.921496
41
0.080000
42
0.080000
50
0.000000
0
CIRCLE
8
0
10
-0.032677
20
0.921496
40
0.025000
0
INSERT
8
0
2
RPAD
10
0.067323
20
0.921496
41
0.080000
42
0.080000
50
0.000000
0
CIRCLE
8
0
10
0.067323
20
0.921496
40
0.025000
0
INSERT
8
0
2
RPAD
10
-0.262677
20
0.921496
41
0.080000
42
0.080000
50
0.000000
0
CIRCLE
8
0
10
-0.262677
20
0.921496
40
0.025000
0
INSERT
8
0
2
RPAD
10
-0.162677
20
0.921496
41
0.080000
42
0.080000
50
0.000000
0
CIRCLE
8
0
10
-0.162677
20
0.921496
40
0.025000
0
INSERT
8
0
2
RPAD
10
0.191496
20
1.046496
41
0.045000
42
0.071000
50
180.000000
0
INSERT
8
0
2
RPAD
10
0.077323
20
1.046496
41
0.045000
42
0.071000
50
180.000000
0
INSERT
8
0
2
RPAD
10
-0.038504
20
1.041496
41
0.045000
42
0.071000
50
180.000000
0
INSERT
8
0
2
RPAD
10
-0.152677
20
1.041496
41
0.045000
42
0.071000
50
180.000000
0
INSERT
8
0
2
RPAD
10
0.142323
20
-0.633504
41
0.045000
42
0.071000
50
-90.000000
0
INSERT
8
0
2
RPAD
10
0.142323
20
-0.747677
41
0.045000
42
0.071000
50
-90.000000
0
INSERT
8
0
2
RPAD
10
-0.397677
20
1.046496
41
0.045000
42
0.071000
50
0.000000
0
INSERT
8
0
2
RPAD
10
-0.283504
20
1.046496
41
0.045000
42
0.071000
50
0.000000
0
INSERT
8
0
2
RPAD
10
-0.397677
20
0.921496
41
0.080000
42
0.080000
50
0.000000
0
CIRCLE
8
0
10
-0.397677
20
0.921496
40
0.025000
0
INSERT
8
0
2
RPAD
10
-0.497677
20
0.921496
41
0.080000
42
0.080000
50
0.000000
0
CIRCLE
8
0
10
-0.497677
20
0.921496
40
0.025000
0
INSERT
8
0
2
RPAD
10
0.302323
20
-0.003504
41
0.080000
42
0.080000
50
0.000000
0
CIRCLE
8
0
10
0.302323
20
-0.003504
40
0.025000
0
INSERT
8
0
2
RPAD
10
0.202323
20
-0.003504
41
0.080000
42
0.080000
50
0.000000
0
CIRCLE
8
0
10
0.202323
20
-0.003504
40
0.025000
0
INSERT
8
0
2
RPAD
10
0.102323
20
-0.003504
41
0.080000
42
0.080000
50
0.000000
0
CIRCLE
8
0
10
0.102323
20
-0.003504
40
0.025000
0
INSERT
8
0
2
RPAD
10
-0.252677
20
-0.008504
41
0.080000
42
0.080000
50
0.000000
0
CIRCLE
8
0
10
-0.252677
20
-0.008504
40
0.025000
0
INSERT
8
0
2
RPAD
10
-0.352677
20
-0.008504
41
0.080000
42
0.080000
50
0.000000
0
CIRCLE
8
0
10
-0.352677
20
-0.008504
40
0.025000
0
INSERT
8
0
2
RPAD
10
-0.053189
20
0.717441
41
0.045000
42
0.071000
50
180.000000
0
INSERT
8
0
2
RPAD
10
-0.167362
20
0.717441
41
0.045000
42
0.071000
50
180.000000
0
INSERT
8
0
2
RPAD
10
0.717323
20
1.261496
41
0.080000
42
0.080000
50
0.000000
0
CIRCLE
8
0
10
0.717323
20
1.261496
40
0.025000
0
INSERT
8
0
2
RPAD
10
0.817323
20
1.261496
41
0.080000
42
0.080000
50
0.000000
0
CIRCLE
8
0
10
0.817323
20
1.261496
40
0.025000
0
INSERT
8
0
2
RPAD
10
0.917323
20
1.261496
41
0.080000
42
0.080000
50
0.000000
0
CIRCLE
8
0
10
0.917323
20
1.261496
40
0.025000
0
INSERT
8
0
2
RPAD
10
0.362323
20
1.261496
41
0.080000
42
0.080000
50
0.000000
0
CIRCLE
8
0
10
0.362323
20
1.261496
40
0.025000
0
INSERT
8
0
2
RPAD
10
0.462323
20
1.261496
41
0.080000
42
0.080000
50
0.000000
0
CIRCLE
8
0
10
0.462323
20
1.261496
40
0.025000
0
INSERT
8
0
2
RPAD
10
0.562323
20
1.261496
41
0.080000
42
0.080000
50
0.000000
0
CIRCLE
8
0
10
0.562323
20
1.261496
40
0.025000
0
INSERT
8
0
2
RPAD
10
-0.007677
20
1.266496
41
0.080000
42
0.080000
50
0.000000
0
CIRCLE
8
0
10
-0.007677
20
1.266496
40
0.025000
0
INSERT
8
0
2
RPAD
10
0.092323
20
1.266496
41
0.080000
42
0.080000
50
0.000000
0
CIRCLE
8
0
10
0.092323
20
1.266496
40
0.025000
0
INSERT
8
0
2
RPAD
10
0.192323
20
1.266496
41
0.080000
42
0.080000
50
0.000000
0
CIRCLE
8
0
10
0.192323
20
1.266496
40
0.025000
0
INSERT
8
0
2
RPAD
10
1.492323
20
-0.788504
41
0.080000
42
0.080000
50
0.000000
0
CIRCLE
8
0
10
1.492323
20
-0.788504
40
0.025000
0
INSERT
8
0
2
RPAD
10
1.592323
20
-0.788504
41
0.080000
42
0.080000
50
0.000000
0
CIRCLE
8
0
10
1.592323
20
-0.788504
40
0.025000
0
INSERT
8
0
2
RPAD
10
-0.501024
20
0.711378
41
0.080000
42
0.080000
50
90.000000
0
CIRCLE
8
0
10
-0.501024
20
0.711378
40
0.025000
0
INSERT
8
0
2
RPAD
10
-0.501024
20
0.611378
41
0.080000
42
0.080000
50
90.000000
0
CIRCLE
8
0
10
-0.501024
20
0.611378
40
0.025000
0
INSERT
8
0
2
RPAD
10
-0.501024
20
0.511378
41
0.080000
42
0.080000
50
90.000000
0
CIRCLE
8
0
10
-0.501024
20
0.511378
40
0.025000
0
POLYLINE
8
0
66
1
40
0.008000
41
0.008000
0
VERTEX
8
0
10
-1.881890
20
-1.496063
0
VERTEX
8
0
10
1.881890
20
-1.496063
0
VERTEX
8
0
10
1.881890
20
1.496063
0
VERTEX
8
0
10
-1.881890
20
1.496063
0
VERTEX
8
0
10
-1.881890
20
-1.496063
0
SEQEND
8
0
0
ENDSEC
0
EOF

